<?xml version="1.0" encoding="UTF-8" standalone="no"?>
<!-- Generator: Adobe Illustrator 14.0.0, SVG Export Plug-In . SVG Version: 6.00 Build 43363)  -->

<svg
   xmlns:dc="http://purl.org/dc/elements/1.1/"
   xmlns:cc="http://creativecommons.org/ns#"
   xmlns:rdf="http://www.w3.org/1999/02/22-rdf-syntax-ns#"
   xmlns:svg="http://www.w3.org/2000/svg"
   xmlns="http://www.w3.org/2000/svg"
   xmlns:sodipodi="http://sodipodi.sourceforge.net/DTD/sodipodi-0.dtd"
   xmlns:inkscape="http://www.inkscape.org/namespaces/inkscape"
   version="1.1"
   id="Layer_1"
   x="0px"
   y="0px"
   width="612px"
   height="792px"
   viewBox="0 0 612 792"
   enable-background="new 0 0 612 792"
   xml:space="preserve"
   inkscape:version="0.48.4 r9939"
   sodipodi:docname="foods2.svg"
   inkscape:export-filename="/home/me/Desktop/icon.png"
   inkscape:export-xdpi="36.863815"
   inkscape:export-ydpi="36.863815"><metadata
     id="metadata301"><rdf:RDF><cc:Work
         rdf:about=""><dc:format>image/svg+xml</dc:format><dc:type
           rdf:resource="http://purl.org/dc/dcmitype/StillImage" /><dc:title></dc:title></cc:Work></rdf:RDF></metadata><defs
     id="defs299" /><sodipodi:namedview
     pagecolor="#ffffff"
     bordercolor="#666666"
     borderopacity="1"
     objecttolerance="10"
     gridtolerance="10"
     guidetolerance="10"
     inkscape:pageopacity="0"
     inkscape:pageshadow="2"
     inkscape:window-width="1911"
     inkscape:window-height="811"
     id="namedview297"
     showgrid="false"
     inkscape:zoom="0.84281415"
     inkscape:cx="474.22121"
     inkscape:cy="495.84836"
     inkscape:window-x="1"
     inkscape:window-y="0"
     inkscape:window-maximized="0"
     inkscape:current-layer="Layer_1" /><path
     style="fill:#b3edfa;fill-opacity:1;stroke:none"
     d="m 194.28957,298.4155 c -35.26275,10.49827 -76.85978,57.8735 -78.98453,97.17896 -2.18926,40.49895 0.53481,91.61234 30.75598,108.42454 28.51045,15.86052 73.03349,13.98877 102.87447,13.95012 50.95142,-0.066 87.79638,-18.54324 101.3826,-40.03207 16.97325,-35.92698 6.65755,-111.67047 -13.35175,-138.58726 -18.71576,-23.51804 -29.72315,-35.21543 -69.1137,-42.12079 -24.08727,-4.22261 -38.30032,-9.31177 -73.56307,1.1865 z"
     id="path3859"
     inkscape:connector-curvature="0"
     sodipodi:nodetypes="zsssccsz" /><path
     style="fill:#7ddef5;fill-opacity:1;stroke:none"
     d="m 151.84083,390.45206 c -0.61622,12.2766 -2.4711,33.46161 13.17505,46.95606 19.32113,16.66403 43.5525,12.01925 58.54354,13.45584 14.84898,1.42297 83.64352,-6.82583 92.05625,-19.73357 16.85702,-25.86391 14.45157,-59.83873 -1.47078,-78.71323 -9.00491,-10.67449 -35.60979,-15.22599 -62.30711,-13.89874 -21.70014,1.07881 -46.81728,0.4741 -59.0518,4.20828 -20.84032,6.36081 -40.02073,29.30867 -40.94515,47.72536 z"
     id="path3857"
     inkscape:connector-curvature="0"
     sodipodi:nodetypes="ssssssss" /><path
     style="fill:#b8bfb0;fill-rule:evenodd"
     d="m 251.406,465.1 40.04,-3.209 -0.594,12.476 50.84242,-13.11738 -18.66358,-53.97848 c -51.92999,-0.99852 -98.65868,12.85115 -178.50386,59.68201 L 192.119,481.02 l 0,0 0,0 60.237,-5.584 z"
     id="polygon25"
     inkscape:connector-curvature="0"
     sodipodi:nodetypes="ccccccccccc" /><path
     style="fill:#cce8cf;fill-rule:evenodd"
     d="m 182.258,328.703 0.475,0.713 0.356,0.713 0.475,0.951 0.238,0.356 0.357,0.594 0.356,0.594 0.357,0.713 0.237,0.594 0.356,0.594 0.238,0.713 0.357,0.713 0.237,0.713 0.357,0.712 0.356,0.713 0.357,0.832 0.237,0.713 0.356,0.713 0.238,0.831 0.357,0.832 0.237,0.713 0.356,0.832 0.238,0.831 0.357,0.951 0.118,0.713 0.238,0.831 0.119,0.832 0.238,0.832 0.118,0.713 0.238,0.831 0.238,0.832 0.237,0.831 0.119,0.713 0.119,0.832 0.119,0.713 0.237,0.832 0.119,0.713 0.119,0.713 0.119,0.712 0.238,0.713 0.118,1.07 0.119,1.188 0.119,0.95 0.237,0.951 0.119,0.594 0.119,0.594 0,0.356 0.119,0.238 0.238,-0.238 0.831,-0.237 0.476,-0.238 0.831,-0.238 0.713,-0.237 1.069,-0.238 0.832,-0.475 1.069,-0.357 1.188,-0.356 1.188,-0.356 1.189,-0.476 1.306,-0.356 0.713,-0.238 0.713,-0.118 0.713,-0.238 0.713,-0.119 0.594,-0.356 0.713,-0.119 0.713,-0.357 0.713,-0.119 0.594,-0.237 0.713,-0.238 0.712,-0.237 0.713,-0.119 0.595,-0.238 0.712,-0.119 0.713,-0.237 0.713,-0.119 0.594,-0.238 0.713,-0.118 0.713,-0.238 0.713,-0.119 1.188,-0.356 1.188,-0.357 1.069,-0.238 1.07,-0.118 0.95,-0.119 0.951,-0.119 0.713,0 0.831,0 0.475,-0.119 0.832,0 0.713,0 0.95,0 0.832,0 1.07,0 1.069,0 1.188,0 1.069,0 1.07,0 1.188,0 1.306,0 1.07,0 1.307,0 1.188,0 1.307,0 1.069,-0.118 1.07,0 1.069,0 1.188,0 0.951,0 1.068,0 0.832,0 0.951,0 0.713,0 0.712,0 0.595,0 0.594,0 0.713,0 0.356,0 0,-0.238 0,-0.357 0,-0.712 0.119,-0.713 0,-1.07 0.356,-1.188 0,-0.713 0.119,-0.712 0.119,-0.713 0,-0.713 0,-0.951 0.119,-0.831 0.237,-0.951 0.119,-0.832 0.119,-0.95 0,-0.951 0.119,-0.95 0.356,-0.95 0,-1.07 0,-1.069 0.119,-1.069 0.119,-1.07 0.238,-1.069 0.118,-1.069 0,-1.07 0.357,-0.95 0,-1.188 0.118,-1.07 0.119,-1.188 0,-1.069 0,-1.069 0.119,-1.07 0.238,-1.069 0.119,-0.95 0,-1.07 0,-1.069 0,-1.069 0.118,-0.951 0,-1.069 0.119,-0.832 0,-0.951 0.238,-0.831 0,-0.95 0,-0.832 0,-0.951 0,-0.712 0,-0.713 0,-0.713 0,-0.713 0,-0.475 -0.238,-1.189 -0.119,-0.831 -0.118,-0.713 0,-0.238 -0.951,-0.713 -1.069,-0.475 -0.713,-0.238 -0.594,-0.118 -0.832,-0.119 -0.832,0 -1.069,-0.119 -1.069,0 -1.188,0 -1.07,0.119 -1.306,0 -1.189,0.237 -0.713,0 -0.593,0.119 -0.713,0.119 -0.595,0.119 -0.831,0 -0.713,0 -0.713,0.119 -0.713,0.119 -0.831,0 -0.713,0.118 -0.832,0.119 -0.713,0.238 -0.832,0 -0.831,0.237 -0.832,0 -0.713,0.238 -0.832,0.119 -0.713,0.238 -0.831,0.118 -0.713,0.238 -0.95,0 -0.713,0.237 -0.951,0.12 -0.713,0.237 -0.95,0.119 -0.713,0.237 -0.95,0.119 -0.713,0.238 -0.951,0.119 -0.713,0.237 -0.95,0.119 -0.713,0.238 -0.832,0.119 -0.832,0.237 -0.831,0.119 -0.713,0.356 -0.951,0.119 -0.831,0.238 -0.832,0.119 -0.832,0.237 -0.95,0.238 -0.713,0.238 -0.951,0.356 -0.712,0.357 -0.951,0.237 -0.832,0.238 -0.831,0.356 -0.713,0.357 -0.832,0.356 -0.831,0.356 -0.713,0.357 -0.713,0.356 -0.832,0.357 -0.832,0.356 -0.831,0.357 -0.713,0.356 -0.832,0.357 -0.712,0.356 -0.713,0.356 -0.713,0.476 -0.713,0.356 -0.713,0.356 -0.713,0.357 -0.713,0.475 -0.713,0.356 -0.594,0.476 -0.594,0.356 -0.594,0.476 -0.713,0.356 -0.713,0.356 -0.594,0.357 -0.594,0.356 -1.069,0.713 -1.069,0.713 -1.07,0.594 -0.95,0.713 -0.832,0.594 -0.713,0.594 -0.831,0.475 -0.595,0.475 -0.594,0.357 -0.356,0.356 -0.594,0.475 -0.119,0.238 0,0 0,0 0.119,0.357 z"
     id="polygon9" /><path
     style="fill:#d99966;fill-rule:evenodd"
     d="m 207.446,380.743 -0.713,-10.812 -6.178,0 0,0 0,0 -1.545,7.723 z"
     id="polygon11" /><path
     style="fill:#d99966;fill-rule:evenodd"
     d="m 144.832,467.357 c 2.09665,-1.84758 3.76497,-2.35286 6.71337,-3.67449 5.67654,-2.5445 12.59678,-3.40323 18.61071,-5.10224 8.2933,-1.36469 16.64347,-3.10086 25.05192,-3.22327 5.5369,1.22975 10.82254,4.11076 16.68222,2.95161 29.78343,-1.04887 58.97798,-7.58206 88.45657,-11.21395 2.98402,-0.39062 5.95705,-0.84138 8.97041,-0.43991 2.01297,-10.51242 4.06548,-21.26297 4.18567,-31.9201 -7.99633,3.68507 -4.67969,-9.96642 -6.7005,-14.4358 -1.97865,-11.53984 -1.60182,-23.62332 -5.67215,-34.70834 -8.4752,0.33182 -16.96919,0.53596 -25.30264,2.11986 -6.24767,0.90977 -12.61935,1.55844 -18.15024,4.86863 -4.27001,1.71902 -7.97351,3.97903 -12.68734,4.124 -6.47675,1.31883 -12.77955,-3.43107 -19.27721,-0.72368 -4.79046,1.42115 -9.95677,5.52521 -12.92079,8.56568 -1.56547,-0.97726 -3.07511,-2.07936 -4.752,-2.852 -3.62265,-5.80787 -13.86806,-4.01605 -19.12467,-0.72556 -3.83031,4.21686 1.93893,8.7485 5.71112,10.53417 3.75294,0.65685 0.29585,3.11015 -0.77672,5.00759 -1.17444,1.47313 -3.03892,-2.30447 -4.81973,-2.5782 -5.22432,-2.99393 -11.83836,-1.07274 -15.99593,2.88217 -5.56621,3.97389 -7.04045,11.9094 -4.08307,17.90983 -6.53467,7.72267 -13.06933,15.44533 -19.604,23.168 -0.8262,-1.79875 0.8028,-6.39673 -1.8306,-6.13504 -4.14247,0.14401 -8.28493,0.28803 -12.4274,0.43204 0.17558,12.44749 2.98097,25.01256 8.911,36 0.39495,0.44261 0.54632,0.14021 0.832,-0.831 z"
     id="polygon13"
     inkscape:connector-curvature="0"
     sodipodi:nodetypes="csccccccccccccccccccccccccc" /><path
     style="fill:#f2cc99;fill-rule:evenodd"
     d="m 298.337,371.951 c 0.62086,-0.0696 1.2055,0.15884 1.782,0.356 -0.0782,0.94967 0.13654,1.87445 0.12963,2.81858 0.21365,1.3451 0.006,2.71571 0.26522,4.05931 0.12243,1.0878 0.0707,2.1859 0.19915,3.27459 0.0232,0.67947 0.16954,1.34379 0.14153,2.03054 0.46757,6.34322 0.57161,12.7066 0.57147,19.06498 -1.06933,-2.099 -2.13867,-4.198 -3.208,-6.297 -1.66354,-5.85493 -3.14327,-11.86647 -6.17617,-17.19832 -1.6803,-2.95845 -4.46337,-5.60479 -7.98953,-5.95242 -3.9722,-0.40884 -7.8545,1.12011 -11.32128,2.89472 -0.36816,0.35114 0.0184,-0.86849 -0.0239,-1.19544 0.14696,-1.32485 0.29391,-2.64969 0.44087,-3.97454 1.00774,-0.31025 2.1483,-0.0933 3.20415,-0.20557 7.32813,-0.17887 14.66761,-0.14906 21.98485,0.32457 z"
     id="polygon15"
     inkscape:connector-curvature="0" /><path
     style="fill:#fff2cc;fill-rule:evenodd"
     d="m 149.347,467.832 c 4.23603,-1.63949 8.67188,-2.54863 13.12824,-3.3108 2.18837,-0.74499 4.54234,-0.62889 6.76293,-1.22169 4.23348,-0.36114 8.48032,-0.60029 12.71519,-0.83121 2.86164,-0.003 5.74693,0.009 8.58583,0.18816 2.55098,-0.264 3.66509,2.66923 3.47684,4.77993 0.27049,3.9515 0.11258,7.91072 -0.57404,11.8149 -0.62655,2.18317 0.64099,6.52941 -2.9732,5.51761 -4.8837,0.70158 -9.81042,1.08377 -14.70438,1.69333 -3.18626,0.0684 -6.31675,0.71572 -9.51068,0.75152 -2.67048,0.51391 -5.39137,0.36207 -8.06817,0.77171 -2.80523,0.72551 -5.36169,-0.75591 -6.04209,-3.63455 -1.55877,-4.35833 -2.61441,-8.90152 -3.26683,-13.46208 -0.25953,-0.96376 -0.97644,-2.67588 0.47036,-3.05683 z"
     id="polygon21"
     inkscape:connector-curvature="0" /><path
     style="fill:#fff2cc;fill-rule:evenodd"
     d="m 251.168,466.049 0,0.357 0,0.713 0,0.713 0.119,0.951 0,0.594 0,1.068 0,0.832 0.119,1.071 0,0.949 0.119,1.07 0.119,1.069 0.119,1.187 0,0.951 0,1.188 0.118,1.07 0.119,1.068 0,0.832 0.119,1.071 0.119,0.949 0.238,0.951 0,0.713 0.118,0.594 0.119,0.474 0.119,0.596 0.237,0.83 0.476,0.238 0.119,0 0.475,0 0.475,0 0.713,0 0.95,0 1.188,0 0.476,0 0.594,0 0.713,0 0.594,0 0.594,0 0.712,0 0.713,0 0.832,0 0.713,0 0.713,0 0.832,0 0.95,0 0.713,0 0.832,0 0.831,0 0.951,0 0.832,0 0.95,0 0.832,0 0.95,0.12 0.713,0 0.951,0 0.712,0 0.951,0 0.832,0 0.831,0 0.832,0 0.95,0 0.713,0 0.832,0 0.713,0 0.832,0 0.713,0 0.712,0 0.713,0 0.713,0.238 1.188,0 1.188,0 0.951,0 1.069,0 0.594,0 0.713,0 0.356,0 0.357,0.117 -3.327,-25.187 -37.426,1.664 0,0 0,0 0,0.355 z"
     id="polygon23" /><path
     style="fill:#ffb300;fill-rule:evenodd"
     d="m 232.634,402.961 0,0.594 0,1.068 -0.119,0.477 0,0.593 -0.119,0.713 0,0.713 -0.119,0.713 -0.118,0.713 -0.119,0.832 -0.119,0.832 -0.357,0.713 -0.237,0.83 -0.356,0.832 -0.357,0.832 -0.475,0.832 -0.357,0.832 -0.594,0.83 -0.475,0.951 -0.713,0.713 -0.713,0.713 -0.831,0.713 -0.832,0.832 -1.069,0.594 -0.951,0.713 -1.188,0.593 -1.069,0.713 -0.475,-0.119 -0.476,-0.355 -0.475,-0.832 -0.475,-0.951 -0.357,-0.713 -0.237,-0.594 -0.238,-0.713 -0.238,-0.713 -0.237,-0.832 -0.238,-0.713 -0.237,-0.713 -0.119,-0.713 -0.357,-0.83 -0.237,-0.832 -0.238,-0.832 -0.237,-0.713 -0.238,-0.713 -0.119,-0.712 -0.238,-0.713 0,-0.594 -0.356,-1.188 -0.119,-0.712 -0.119,-0.596 0,-0.117 17.347,-3.565 0,0 0,0 0,0.117 z"
     id="polygon29" /><path
     style="fill:#00b300;fill-opacity:1;fill-rule:evenodd"
     d="m 296.555,388.109 c 1.10613,2.33565 1.50751,4.92035 1.4758,7.48371 0.14234,2.60697 -0.72027,5.14025 -1.0008,7.72329 2.72047,2.84709 4.38549,6.72897 4.29153,10.6784 -0.82923,5.26009 -4.11859,10.19055 -9.04594,12.42586 -2.34849,1.30161 -4.97268,1.8851 -7.60392,2.20274 -14.69505,-1.10356 -29.41736,2.22309 -44.07767,0.238 -2.04951,-0.52108 -3.91975,-1.85099 -4.69859,-3.87113 -0.80617,-1.95654 -0.37337,-4.22621 0.30083,-6.15765 1.11698,-5.04598 6.21686,-7.781 10.9731,-8.45981 1.35585,-0.67475 4.95991,-0.21138 5.24929,-0.92914 -0.50217,-1.57755 -0.46163,-3.28967 -0.62749,-4.93813 0.0401,-6.55139 3.71329,-12.90059 9.11986,-16.51514 -1.11145,-5.03177 -0.97778,-10.58773 1.01764,-15.41344 0.99638,-3.34628 5.32057,-5.00645 8.02774,-2.63018 1.61551,1.56483 2.24258,3.77597 2.59862,5.92562 1.2196,-1.5421 3.35196,-2.44221 5.27735,-2.90664 4.30752,-0.87665 8.8211,0.3977 12.42565,2.78664 3.08372,-1.79692 8.1699,-1.53487 9.96774,1.99677 1.13447,3.10091 -1.06834,6.28851 -3.17303,8.38968 -0.71,0.8228 -1.23327,0.87261 -0.49771,1.97055 z"
     id="polygon31"
     inkscape:connector-curvature="0" /><path
     style="fill:#ffb300;fill-rule:evenodd"
     d="m 216.594,404.623 c 6.09635,0.65746 12.79154,1.55136 18.44413,-1.42375 3.24002,-1.67837 3.61951,-5.65834 4.07554,-8.87737 0.92889,-3.51474 -3.49586,-7.03341 0.3161,-9.23223 2.10047,-2.78773 2.44961,-7.68549 -1.42697,-9.08906 -3.59037,-2.00684 -7.99001,-1.84417 -11.8608,-0.85724 -4.68211,1.60883 -9.11455,4.76543 -11.33,9.28265 -0.48306,-4.27716 -4.92742,-6.67736 -8.67298,-7.74285 -4.17103,-1.24574 -9.09344,-1.56037 -12.88824,0.8439 -3.74652,1.86371 -5.2464,7.09484 -2.76955,10.5406 1.05496,2.34331 5.00942,2.70129 5.42131,4.8053 -0.58786,1.65968 -1.17572,3.31937 -1.76358,4.97905 -2.68556,-2.9066 -8.52223,-5.11388 -13.41406,-5.35603 -3.0409,-0.0673 -5.68165,1.98003 -6.72218,4.77693 -2.80281,4.94888 -4.69299,10.7116 -4.04391,16.45444 0.94593,2.86923 -0.89273,5.84316 -0.38348,8.83037 -0.0497,5.60074 1.40152,11.3565 4.72163,15.92629 13.26733,-0.31633 26.53467,-0.63267 39.802,-0.949 0.37109,-3.81441 -0.88808,-8.96327 0.44642,-11.98912 2.50486,-0.47896 5.00972,-0.95792 7.51458,-1.43688 -1.86133,-6.49533 -3.72267,-12.99067 -5.584,-19.486 l 0.118,0 z"
     id="polygon33"
     inkscape:connector-curvature="0"
     sodipodi:nodetypes="ccccccccccccccccccccccc" /><path
     style="fill:#00d900;fill-opacity:1;fill-rule:evenodd"
     d="m 287.763,406.406 c -0.31497,0.51728 -0.39474,1.1321 -0.70697,1.65059 -0.22459,0.37069 -0.1547,0.82827 -0.23525,1.24147 -0.0499,0.56591 -0.18381,1.13135 -0.0727,1.69817 0.0931,0.5766 0.0459,1.16443 0.0765,1.74148 0.20995,0.58928 0.44829,1.17277 0.60037,1.77797 0.35762,0.58244 0.66637,1.19959 1.14317,1.69745 0.53799,0.67081 1.28443,1.12471 1.85515,1.76417 0.53207,0.39479 1.12724,0.70969 1.66857,1.09707 0.56273,0.28047 1.1512,0.51591 1.71398,0.79884 0.58184,0.25906 1.21498,0.38534 1.76555,0.71489 0.21532,0.18972 0.33991,-0.17815 0.5076,-0.2811 0.28096,-0.26546 0.6224,-0.48367 0.86507,-0.77905 0.23043,-0.50403 0.5359,-0.98044 0.71572,-1.50328 0.16956,-0.57382 0.26063,-1.16231 0.32021,-1.75667 -0.81787,-0.44712 -1.69689,-0.76366 -2.55959,-1.10683 -0.72718,-0.41837 -1.48303,-0.79262 -2.19161,-1.23979 -0.54948,-0.41895 -1.1274,-0.81557 -1.61384,-1.30582 -0.52586,-0.69385 -1.09418,-1.36164 -1.56552,-2.09305 -0.57393,-0.94821 -0.97113,-1.98465 -1.42999,-2.99017 -0.15604,-0.46996 -0.33463,-0.93865 -0.50045,-1.40127 -0.0491,-0.30805 -0.2929,0.2063 -0.356,0.27493 z"
     id="polygon35"
     inkscape:connector-curvature="0" /><path
     style="fill:#00d900;fill-opacity:1;fill-rule:evenodd"
     d="m 257.83924,396.08993 c -1.51993,1.76278 -2.58857,4.05985 -3.14357,6.09764 -0.14478,1.31488 -0.57304,2.58364 -0.65288,3.90834 -0.0282,0.33218 -0.0388,1.13684 -0.009,1.1721 0.58464,-1.80709 1.67105,-3.2573 2.70564,-4.61475 0.79019,-1.07355 1.95961,-1.77207 3.04098,-2.5145 0.38439,-0.20987 1.45445,-0.80579 1.5454,-0.0801 -0.21204,0.65993 -0.34753,1.34501 -0.61197,1.99093 -0.36784,0.91638 -0.93745,1.74305 -1.19569,2.70217 -0.12336,0.27705 -0.50064,1.42639 0.045,0.79059 0.67824,-0.62833 1.44712,-1.15534 2.14863,-1.74979 0.82696,-0.98892 2.193,-1.50027 2.69057,-2.76193 0.8295,-2.51937 0.0865,-4.87377 -0.76801,-6.38845 -2.08952,-1.73055 -4.44825,-0.27873 -5.7951,1.44775 z"
     id="polygon37"
     inkscape:connector-curvature="0"
     sodipodi:nodetypes="cccccccccccccc" /><path
     style="fill:#008c00;fill-opacity:1;fill-rule:evenodd"
     d="m 278.614,408.188 -0.356,0.476 -0.238,0.713 -0.475,0.713 c -1.04466,1.99814 -1.9711,3.98419 -3.45423,5.57504 -1.97298,2.11629 -4.64573,3.70444 -7.11977,5.35496 l -0.832,0.476 -0.832,0.475 0.238,0 0.831,0.119 0.476,0 c 7.66769,0.71663 13.46528,-3.82695 14.732,-11.406 l 0.119,-0.239 -2.851,-2.613 0,0 0,0 -0.119,0 z"
     id="polygon39"
     inkscape:connector-curvature="0"
     sodipodi:nodetypes="ccccsccccccccccccc" /><path
     style="fill:#008c00;fill-opacity:1;fill-rule:evenodd"
     d="m 278.139,385.733 -0.475,0.119 -0.476,0.356 c -4.48037,3.81668 -4.92225,7.19251 -4.277,11.405 l 0.475,1.071 0,-0.358 0.238,-0.83 c 0.87409,-2.69981 2.2943,-5.63594 4.515,-7.486 l 0.713,-0.356 -0.238,-4.04 0,0 0,0 -0.238,0 z"
     id="polygon41"
     inkscape:connector-curvature="0"
     sodipodi:nodetypes="cccccccccccccc" /><path
     style="fill:#00d900;fill-opacity:1;fill-rule:evenodd"
     d="m 237.386,422.09 c 0.37825,-0.81641 1.24055,-1.21393 1.73184,-1.95337 1.01812,-0.8859 1.92316,-1.90368 3.0242,-2.69461 1.09168,-0.94909 2.17549,-1.94282 3.4742,-2.59769 0.87215,-0.47962 1.83445,-0.94093 2.84248,-1.03682 1.34699,-0.23803 2.67614,0.34446 3.7377,1.13405 1.07067,1.04517 1.32208,2.61921 1.23525,4.0524 -0.23284,1.2568 -0.88307,2.40015 -1.58139,3.47657 -0.9256,0.78012 -1.79125,1.62939 -2.68394,2.44705 -0.57162,0.59116 0.0467,-1.06089 -0.021,-1.46306 0.29855,-1.25176 0.39855,-2.53968 0.46054,-3.82147 -0.30803,-0.66148 0.3322,-2.17286 -0.51678,-2.17823 -0.98661,0.0251 -1.88719,0.59063 -2.82536,0.9089 -1.12747,0.24098 -2.09215,0.90608 -3.12384,1.39856 -1.16773,0.32485 -2.20406,0.93928 -3.29044,1.43753 -0.87228,0.401 -2.28888,1.09017 -2.80335,1.30463 0.004,-0.23752 0.23429,-0.25569 0.33991,-0.41444 z"
     id="polygon43"
     inkscape:connector-curvature="0" /><path
     style="fill:#00d900;fill-opacity:1;fill-rule:evenodd"
     d="m 285.624,383.238 c 0.21014,-0.74384 0.83985,-1.241 1.14711,-1.93998 0.45142,-0.5914 0.95343,-1.1487 1.44865,-1.70568 1.04682,-1.05512 2.13127,-2.01419 3.1946,-2.88252 0.47502,-0.34089 1.08127,-0.42739 1.60703,-0.67381 0.78267,-0.30641 1.67251,-0.35422 2.47747,-0.10464 0.65636,0.36101 1.44415,0.61407 1.83229,1.30761 0.4424,0.61612 0.64223,1.41564 0.41381,2.15181 -0.17975,0.87638 -0.58603,1.68036 -0.94272,2.49292 -1.5315,1.91297 -3.18558,3.57275 -4.80642,4.93748 -0.43269,-0.0103 0.16039,-0.77896 0.12726,-1.10121 0.56473,-1.45957 1.12002,-3.01268 1.71573,-4.34413 0.0666,-0.37942 0.42537,-1.00563 0.22801,-1.24771 -0.54931,-0.19794 -1.10131,0.0554 -1.63912,0.17192 -0.7731,0.21223 -1.45919,0.63966 -2.19568,0.9442 -0.55095,0.38562 -1.15177,0.68397 -1.78449,0.91414 -1.01089,0.40617 -1.93999,0.98133 -2.84721,1.5783 -0.41475,0.5148 -0.16869,-0.40583 0.0237,-0.4987 z"
     id="polygon45"
     inkscape:connector-curvature="0"
     sodipodi:nodetypes="ccccccccccccccccccc" /><path
     style="fill:#008c00;fill-opacity:1;fill-rule:evenodd"
     d="m 284.673,385.614 c 2.07292,-0.91253 4.3265,-1.61767 6.2567,-2.45012 0.31869,-0.054 0.99979,-0.52059 0.49301,-0.0525 -0.10867,0.74091 -0.575,1.37734 -0.62676,2.1345 -0.4144,1.009 -0.41995,1.75873 -0.41995,2.74417 0.45551,0.7278 1.18454,-0.21849 1.78575,-0.276 2.09558,-0.96964 4.12923,-2.13108 5.54455,-3.71862 0.56291,-0.44102 1.04334,-0.96012 1.41936,-1.57103 0.55698,-0.47372 0.71717,-1.19908 1.07879,-1.80128 0.1484,-0.22872 0.38607,-0.52837 0.19601,-0.003 -0.36689,1.49376 -0.96109,2.94408 -1.61781,4.06226 -0.44106,0.77326 -1.01638,1.40421 -1.70933,1.9612 -0.47529,0.57151 -1.09205,0.94603 -1.68679,1.37392 -0.50393,0.39312 -1.12441,0.60931 -1.63502,1.00234 -1.08126,0.48851 -2.14517,1.03944 -3.26055,1.45011 -0.78479,0.0553 -1.53665,0.2825 -2.30487,0.43732 -0.64984,0.0887 -1.24676,0.4056 -1.92352,0.29441 -0.5432,-0.0341 -1.09255,-0.0761 -1.60163,-0.27184 -0.59562,-0.28666 -1.5488,-0.57028 -1.4157,-1.38653 -0.0811,-0.74266 -0.1721,-1.49391 0.0847,-2.21511 0.0914,-0.77967 0.50895,-1.55648 1.34304,-1.71389 l 0,0 z"
     id="polygon47"
     inkscape:connector-curvature="0"
     sodipodi:nodetypes="ccccccccccccccccccccccc" /><path
     style="fill:#008c00;fill-opacity:1;fill-rule:evenodd"
     d="m 289.664,405.812 c 0.96998,-0.0194 1.93962,-0.009 2.89572,0.17462 0.81032,0.11744 1.56186,0.47437 2.35433,0.67275 1.04119,0.61425 2.06459,1.31014 2.80629,2.27806 1.06141,1.54359 1.5324,3.38318 1.96521,5.18022 0.25769,0.77819 -0.56129,-0.34836 -0.84168,-0.42943 -0.64728,-0.65867 -1.28341,-1.33446 -2.05481,-1.85227 -0.56765,-0.53351 -1.14492,-1.05554 -1.76404,-1.53137 -1.06929,-0.84458 -2.05083,-1.80202 -3.18876,-2.55543 -0.74675,-0.68135 -1.57799,-1.28381 -2.43743,-1.81716 -0.29973,-0.0999 0.17137,-0.15328 0.26517,-0.11999 z"
     id="polygon49"
     inkscape:connector-curvature="0" /><path
     style="fill:#008c00;fill-opacity:1;fill-rule:evenodd"
     d="m 294.06,399.039 c 0.37691,-0.013 0.75458,5.9e-4 1.11929,0.10596 0.44257,-0.14318 1.16752,-0.42047 1.02017,-1.01311 0.057,-1.48984 -0.34882,-2.93793 -0.76116,-4.35386 -0.1254,-0.51817 -0.32113,-1.01029 -0.5368,-1.49666 -0.16503,-0.2265 -0.13538,-0.79901 -0.35376,-0.82995 0.031,0.34232 -0.14145,0.66417 -0.13176,1.00485 0.06,0.39462 -0.0766,0.75318 -0.22796,1.10805 -0.22315,1.63555 -1.13882,3.1527 -1.67303,4.54284 -0.051,0.39827 0.47306,0.47406 0.75423,0.61573 0.2636,0.10537 0.52719,0.21081 0.79078,0.31615 z"
     id="polygon51"
     inkscape:connector-curvature="0"
     sodipodi:nodetypes="ccccccccccc" /><path
     style="fill:#00d900;fill-opacity:1;fill-rule:evenodd"
     d="m 281.465,401.771 c 0.64003,-2.70673 2.55666,-5.0718 4.72206,-6.22591 2.13223,-0.71805 4.44323,-0.78531 6.56494,-0.78216 -1.84208,0.95007 -3.93664,1.71652 -5.59468,2.70399 0.56984,-0.29084 1.16721,-0.13427 1.76743,-0.0864 0.74284,-0.0377 1.44988,0.30464 2.11727,0.58887 0.32073,0.28493 -0.73858,0.014 -0.92313,0.17962 -0.81007,0.30217 -1.64565,0.46679 -2.4819,0.67054 -1.72737,0.54652 -3.26823,1.33367 -4.74599,2.12135 -0.36486,0.49293 -1.29143,1.41632 -1.54732,1.49526 0.0247,-0.22407 0.0812,-0.44367 0.12132,-0.66523 z"
     id="polygon53"
     inkscape:connector-curvature="0"
     sodipodi:nodetypes="cccccccccccc" /><path
     style="fill:#008c00;fill-opacity:1;fill-rule:evenodd"
     d="m 260.673,407.951 c 0.83246,-1.15461 1.87055,-2.15312 2.87399,-3.15806 0.89792,-0.81946 2.04029,-1.2782 2.91054,-2.1376 1.02087,-0.65401 2.10084,-1.2306 3.18211,-1.78123 1.17437,-0.31578 2.28423,-0.91726 3.54059,-0.93559 1.38088,-0.1783 2.71404,0.36146 3.92503,0.93756 1.3772,0.91446 -0.40355,1.95771 -1.24191,2.40445 -1.3565,0.65139 -2.86416,0.90869 -4.26623,1.43385 -1.54009,0.29193 -2.94377,1.00306 -4.44486,1.43392 -2.27842,0.75924 -4.55684,1.51847 -6.83526,2.27771 -0.10897,-0.25866 0.20366,-0.35977 0.356,-0.47501 z"
     id="polygon55"
     inkscape:connector-curvature="0" /><path
     style="fill:#008c00;fill-opacity:1;fill-rule:evenodd"
     d="m 254.139,408.545 c 0.83815,-1.36559 1.51882,-2.87315 2.56056,-4.08275 0.72802,-0.56703 1.75777,-2.75733 2.53487,-2.14839 -0.45156,1.30727 -0.42024,2.70665 -0.96737,3.99055 -0.22024,0.67197 -0.39996,1.7631 0.30499,0.70639 1.07052,-0.8467 2.06081,-1.81386 3.36233,-2.29403 1.48073,-0.68959 3.06717,-1.30505 4.68275,-1.46792 -1.05124,1.00325 -2.06343,2.05594 -2.80791,3.32858 -1.01975,1.23548 -2.09891,2.4481 -2.80531,3.90409 -1.16382,1.33438 -0.57146,3.25079 -1.20938,4.79898 -0.40552,1.25174 -0.99934,2.62828 -2.21811,3.27362 -1.47318,-0.14901 -1.28616,-2.39655 -1.92798,-3.45982 -0.47227,-1.54486 -1.06705,-3.08103 -1.59632,-4.61394 -0.36376,-0.59077 -0.66558,-1.49568 0.0869,-1.93536 z"
     id="polygon57"
     inkscape:connector-curvature="0" /><path
     style="fill:#00d900;fill-opacity:1;fill-rule:evenodd"
     d="m 270.297,378.485 0,-1.069 0,-1.188 -0.356,-1.307 -0.476,-1.069 -0.475,-0.476 -0.356,-0.356 -0.713,-0.238 -0.594,0 -0.951,-0.118 -0.594,0.118 -0.594,0.119 -0.356,0.357 -0.476,0.356 -0.237,0.594 -0.356,0.594 0,0.832 -0.238,0.713 0,0.95 0,0.951 0.119,1.307 0,0.594 0,0.594 0.119,0.713 0.118,0.831 0,0.713 0.119,0.832 0.119,0.832 0.119,0.95 0,-0.238 0,-0.237 0,-0.475 0.238,-0.595 0,-0.831 0.237,-0.713 0.119,-0.832 0.356,-0.713 0.119,-0.95 0.238,-0.832 0.237,-0.831 0.357,-0.595 0.475,-1.069 0.594,-0.356 0.356,0 0.595,0.356 0.356,0.475 0.594,0.713 0.356,0.476 0.357,0.593 0.238,0.357 0.118,0.238 0,0 0,0 0,-0.357 z"
     id="polygon59" /><path
     style="fill:#00d900;fill-opacity:1;fill-rule:evenodd"
     d="m 263.525,417.1 c -0.0828,-1.04913 0.0735,-2.0713 0.25493,-3.08505 0.13032,-1.62474 1.04692,-3.06253 1.99517,-4.33635 1.06745,-0.9608 2.19475,-1.88659 3.38753,-2.69615 1.39599,-0.64222 2.79736,-1.47694 4.38105,-1.45574 1.48769,-0.31001 3.41278,0.74095 3.30599,2.40369 -0.24372,2.05199 -1.47079,3.77696 -2.48705,5.51533 -0.91797,1.169 -2.06946,2.1361 -3.09557,3.19922 -1.28071,0.98843 -2.65716,1.84452 -3.94001,2.83005 1.27722,-2.44685 3.10964,-4.59901 4.05319,-7.2241 0.37876,-0.63998 0.64919,-1.60621 -0.12993,-0.7015 -2.49576,2.2062 -4.99151,4.4124 -7.48726,6.6186 -0.14136,-0.33992 -0.17375,-0.70939 -0.23804,-1.068 z"
     id="polygon61"
     inkscape:connector-curvature="0" /><path
     style="fill:#008c00;fill-opacity:1;fill-rule:evenodd"
     d="m 261.743,376.584 0,0.713 0.237,0.832 0.119,0.831 0.357,1.07 0.118,0.95 0.238,1.07 0.238,0.95 0.356,1.069 0.238,0.832 0.356,0.951 0.356,0.712 0.357,0.832 0,-0.237 0,-0.238 0.119,-0.475 0.237,-0.594 0.119,-0.832 0.238,-0.713 0.238,-0.831 0.356,-0.832 0.238,-0.951 0.237,-0.831 0.238,-0.713 0.356,-0.594 0.475,-1.07 0.595,-0.237 0.356,0.119 0.357,0.475 0.356,0.713 0.356,0.713 0.238,0.594 0.238,0.594 0.118,0.356 0.119,0.238 -0.119,0.237 -0.237,0.713 -0.476,0.951 -0.475,1.188 -0.356,0.475 -0.357,0.594 -0.356,0.475 -0.238,0.594 -0.831,0.832 -0.832,0.475 -0.951,0 -0.831,0.357 -0.832,0.237 -0.713,0.238 -0.713,0 -0.475,0 -0.475,-0.356 -0.119,-0.476 0,-0.594 -0.238,-0.713 0,-0.831 0.238,-0.951 0,-1.069 0,-1.07 0,-1.188 0.119,-1.069 0,-1.188 0,-1.069 0.118,-1.07 0.12,-0.831 0,-0.832 0.118,-0.475 0,-0.357 0.119,0 0,0 0,0 0,0.238 z"
     id="polygon63" /><path
     style="fill:#008c00;fill-opacity:1;fill-rule:evenodd"
     d="m 270.416,372.664 0,0.356 0.119,0.594 0.119,0.713 0.118,0.713 0,0.712 0,0.713 0,0.832 0,0.832 -0.237,0.831 -0.119,0.832 -0.238,0.832 -0.237,0.832 2.138,-0.476 0,-0.237 0,-0.594 0,-0.832 0,-0.95 0,-1.189 0,-1.069 0,-1.069 0,-0.713 -0.237,-0.713 -0.238,-0.594 -0.356,-0.475 -0.238,-0.238 -0.594,-0.475 -0.119,-0.119 0,0 0,0 0,0.238 z"
     id="polygon65" /><path
     style="fill:#bf6633;fill-rule:evenodd"
     d="m 249.505,431.713 c 10.27757,1.04854 20.60878,1.3948 30.891,2.377 -10.47684,2.16351 -20.74554,5.23006 -31.24116,7.31968 2.10938,0.3874 5.88535,0.007 8.61664,0.0313 9.24382,-0.28759 18.48847,-0.7311 27.73348,-0.81798 -2.97936,1.48751 -6.03031,2.98027 -9.16786,4.22649 -7.98317,3.23473 -16.00535,4.68887 -24.94084,6.41231 -2.79742,0.45081 0.19436,0.18109 1.27796,0.11405 15.77524,-1.04895 31.55049,-2.0979 47.32574,-3.14685 -0.0397,-6.258 -0.0793,-12.516 -0.119,-18.774 -5.87781,-0.57652 -11.82506,-0.29755 -17.72315,-0.74861 -10.99756,-0.36376 -22.27216,-0.66052 -32.91412,2.59735 -1.44646,0.70457 -0.0446,0.30165 0.26131,0.40926 z"
     id="polygon67"
     inkscape:connector-curvature="0"
     sodipodi:nodetypes="ccccccccccccc" /><path
     style="fill:#f2cc99;fill-rule:evenodd"
     d="m 143.406,434.209 c 0,3.60367 0,7.20733 0,10.811 0.19111,2.91363 0.20168,5.39513 0.832,7.841 -1.95487,-2.01193 -3.19469,-4.94318 -4.158,-7.248 l 3.683,20.912 -0.357,-0.357 -0.238,-0.713 -0.118,-0.832 -0.357,-0.594 -0.119,-0.832 -0.356,-0.83 -0.238,-1.07 -0.475,-1.068 -0.237,-1.19 -0.238,-1.187 -0.238,-0.713 -0.356,-0.475 -0.119,-0.832 -0.119,-0.594 -0.356,-0.713 0,-0.593 -0.238,-0.713 -0.119,-0.596 -0.356,-0.713 -0.119,-0.713 -0.238,-0.713 -0.118,-0.713 -0.476,-0.712 0,-0.711 -0.237,-0.713 -0.119,-0.713 -0.238,-0.713 -0.119,-0.713 -0.237,-0.713 c -0.74619,-3.59504 -1.901,-7.19787 -1.901,-10.931 l 0.119,-0.713 8.198,0.593 0,0 0,0 -0.238,0 z"
     id="polygon69"
     inkscape:connector-curvature="0"
     sodipodi:nodetypes="ccccccccccccccccccccccccccccccccccccccccc" /><path
     style="fill:#f2cc99;fill-rule:evenodd"
     d="m 226.574,428.506 -0.237,0.474 -0.357,0.713 -0.237,1.069 -0.357,0.476 -0.238,0.713 -0.237,0.713 c -1.54834,6.27691 -3.43197,12.76042 -4.396,19.01 l 0,0.949 -0.119,-0.236 0,-0.358 c -0.37885,-7.05534 -0.832,-14.31098 -0.832,-21.504 l 0,-0.593 0,-0.477 0,0 0,0 7.129,-1.068 z"
     id="polygon71"
     inkscape:connector-curvature="0"
     sodipodi:nodetypes="cccccccccccccccccc" /><path
     style="fill:#bf6633;fill-rule:evenodd"
     d="m 228.594,428.98 -0.238,0.356 -0.237,0.596 -0.238,0.593 -0.118,0.713 -0.357,0.713 -0.238,0.713 -0.356,0.832 -0.238,1.068 -0.356,0.832 -0.238,1.069 -0.356,1.07 -0.238,1.188 -0.356,1.07 -0.357,1.068 -0.356,1.071 -0.357,1.187 -0.356,1.069 -0.237,1.189 -0.238,1.187 -0.238,1.188 -0.356,1.07 -0.119,1.069 -0.238,1.07 0,1.068 -0.237,0.951 0,0.952 0,0.83 0,0.951 5.346,-0.475 0,-15.564 1.664,-11.406 0,0 0,0 -0.119,0.119 z"
     id="polygon73" /><path
     style="fill:#bf6633;fill-rule:evenodd"
     d="m 165.505,442.406 c 3.89077,-0.0178 7.78085,-0.0286 11.66388,0.26148 10.08554,0.49029 20.20037,0.58821 30.26741,1.31985 1.13063,0.11386 -0.0713,0.43467 -0.56344,0.64163 -4.11227,2.33462 -8.44285,4.47573 -13.06482,5.59497 -8.25532,2.45386 -16.66667,4.43668 -25.08737,6.20207 -0.62153,-0.001 -1.2148,0.18579 -0.36749,0 2.47394,-0.0291 4.88946,-0.776 7.35204,-1.0039 6.77225,-0.91478 13.60518,-1.73628 20.44164,-1.68385 1.02529,0.18111 2.30321,0.52372 2.51436,1.7048 0.29695,0.85171 0.0577,1.7269 -0.30856,2.51041 0.10892,0.46546 -1.06165,1.53285 -0.18942,1.38834 6.61892,-1.05126 13.23785,-2.10253 19.85677,-3.1538 -1.307,-6.21767 -2.614,-12.43533 -3.921,-18.653 -6.44121,-0.0144 -12.8835,0.0579 -19.32246,-0.11044 -7.86856,-0.01 -15.7347,1.04098 -23.31746,3.12367 -0.83974,0.117 -1.64935,0.37717 -2.47967,0.54158 -0.6517,0.16484 -1.28531,0.32559 -1.91219,0.55206 -0.79421,0.11543 -1.57728,0.43464 -2.27522,0.76413 0.23767,0 0.47533,0 0.713,0 z"
     id="polygon75"
     inkscape:connector-curvature="0" /><path
     style="fill:#f2cc99;fill-rule:evenodd"
     d="m 148.752,446.922 0.357,0 0.713,0 0.594,-0.119 0.951,0 1.069,0 1.307,0 0.594,-0.119 c 16.43447,0.0844 26.62365,0.31613 42.891,0.238 l -0.238,0 -0.238,0 c -14.73738,2.95778 -30.39379,6.24037 -42.772,9.385 l -0.712,0.119 -0.595,0.238 -1.306,0.236 -0.951,0.358 -2.02,-10.219 0,0 0,0 0,-0.117 z"
     id="polygon77"
     inkscape:connector-curvature="0"
     sodipodi:nodetypes="ccccccccccccccccccccc" /><path
     style="fill:#ffe600;fill-rule:evenodd"
     d="m 234.178,385.852 c 1.25379,-1.07797 2.66852,-2.46686 2.49124,-4.27082 0.22948,-1.11773 -0.7328,-2.0329 -1.73865,-2.28798 -1.12213,-0.30676 -2.29576,-0.38742 -3.45241,-0.47343 -1.19691,-0.0577 -2.39038,0.20229 -3.48534,0.66013 -1.50134,0.28481 -2.83869,1.10002 -4.09794,1.92342 -1.2684,1.10235 -2.52557,2.31784 -3.11848,3.93108 -0.61292,1.21175 -1.09453,2.50472 -1.18154,3.87077 -0.41682,2.20209 -0.49503,4.60942 0.60248,6.63779 0.78564,1.55005 2.1868,2.72644 3.80458,3.33197 1.51136,0.67684 3.22044,0.75187 4.8452,0.76025 0.43615,-0.17983 1.50984,0.18325 1.61931,-0.25845 -1.58997,-0.9529 -3.18232,-1.97283 -4.4888,-3.30643 -1.26389,-1.0744 -2.33213,-2.4372 -2.84865,-4.02943 0.24392,-1.20161 1.53516,0.39663 2.25226,0.34955 1.09853,0.20583 2.21569,0.4827 3.3504,0.51053 0.74752,-0.0931 2.12866,0.29857 2.51237,-0.16254 -0.84139,-0.75212 -1.78953,-1.38801 -2.63641,-2.14129 -1.08461,-0.89963 -2.16001,-1.96891 -2.50862,-3.38214 1.88654,0.022 3.78669,-0.0736 5.64372,-0.40614 0.89456,-0.23058 1.69253,-0.72226 2.43528,-1.25684 z"
     id="polygon101"
     inkscape:connector-curvature="0" /><path
     style="fill:#ffe600;fill-rule:evenodd"
     d="m 188.08,401.416 c -1.01096,-1.31945 -2.14842,-2.63704 -3.71904,-3.29217 -1.03422,-0.65967 -2.4211,-0.7502 -3.56745,-0.33924 -1.27435,0.42813 -2.36814,1.27706 -3.45907,2.0509 -0.72138,0.93694 -1.35181,1.93855 -1.80997,3.03726 -0.88196,1.52006 -0.7711,3.31352 -0.74257,5.00347 0.24908,1.58446 0.87429,3.12272 1.91863,4.34608 1.19738,1.37376 3.00371,1.87992 4.67407,2.42197 1.06438,0.19689 2.14814,0.54399 3.22704,0.50299 0.63546,-0.15208 1.96321,0.0392 2.17081,-0.14343 -1.36567,-0.93327 -2.74357,-1.89124 -3.91633,-3.05947 -0.88228,-0.96675 -1.78893,-1.9828 -2.23337,-3.2378 -0.25323,-1.30361 1.57502,-0.0792 2.25143,-0.0527 1.25748,0.13662 2.49879,0.47763 3.77505,0.36278 0.63257,-0.0888 2.19543,0.40632 0.97089,-0.39254 -1.56653,-1.08088 -2.83129,-2.52399 -4.03536,-3.97798 -0.4861,-0.49964 -1.64261,-2.69166 -0.24206,-1.88634 1.22886,0.69047 2.71497,0.9956 4.06027,0.48605 0.80183,-0.15643 2.05992,-0.48398 1.01704,-1.35662 -0.11283,-0.15812 -0.22903,-0.31383 -0.34001,-0.47326 z"
     id="polygon103"
     inkscape:connector-curvature="0" /><path
     style="fill:#ffe600;fill-rule:evenodd"
     d="m 199.129,399.752 c 0.10801,-0.72273 0.49244,-1.3546 0.70352,-2.04952 0.24533,-0.73737 0.32099,-1.52857 0.37478,-2.30156 0.0143,-1.19379 -0.0968,-2.43527 -0.62033,-3.52423 -0.91263,-1.50663 -2.49727,-2.42525 -4.07894,-3.09191 -0.55593,-0.2395 -1.02434,-0.62256 -1.31822,-1.15655 -0.27926,-0.54652 -0.26558,-1.2713 0.11103,-1.7689 0.22921,-0.47752 0.24778,-1.05571 0.6723,-1.42603 0.33735,-0.51844 0.92986,-0.63826 1.47971,-0.82067 0.60172,-0.26241 1.24583,0.0662 1.87799,-0.0136 0.6423,0.0871 1.26008,0.43143 1.91381,0.5125 0.85996,0.46429 1.74891,0.90682 2.43475,1.61964 0.89321,0.80396 1.65276,1.76592 2.08412,2.89737 0.34232,0.68414 0.10021,1.48391 0.28794,2.21586 -0.16653,0.70255 -0.46239,1.42109 -0.60024,2.15129 -0.3132,0.66548 -0.62704,1.33073 -0.9381,1.99729 -0.39723,0.6815 -0.80863,1.36476 -1.27633,1.9968 -0.50692,0.473 -0.91738,1.03706 -1.41624,1.51353 -0.62549,0.37703 -0.84665,1.10846 -1.40334,1.5554 -0.29873,0.18006 -0.8273,1.17958 -0.60472,0.33889 0.0805,-0.22707 0.22306,-0.42451 0.31651,-0.64565 z"
     id="polygon105"
     inkscape:connector-curvature="0" /><path
     style="fill:#ffe600;fill-rule:evenodd"
     d="m 216.119,418.287 c -0.43216,-1.27591 -0.88637,-2.56352 -1.58357,-3.72664 -1.42451,-2.32573 -3.1828,-4.65628 -5.78582,-5.71861 -1.16445,-0.59559 -2.40972,-0.96415 -3.71919,-0.98911 -1.2974,0.27058 -2.75087,-0.21792 -3.93551,0.54543 -1.58574,0.65184 -3.01042,1.90917 -3.51246,3.583 -0.54748,1.27469 -0.49954,2.69188 -0.59564,4.04162 0.0129,1.27665 0.20488,2.52361 0.59131,3.73926 0.48791,1.27929 1.02262,2.52868 1.84629,3.63457 0.36838,0.53739 1.386,1.88066 1.53501,1.69573 -0.20752,-1.52964 -0.14828,-3.06085 -0.0532,-4.5953 -0.0665,-1.46719 0.39968,-2.86508 0.64151,-4.29442 0.27445,-1.00988 0.73013,-2.69003 1.80424,-1.27926 1.42354,0.98626 2.80039,2.0454 3.8588,3.43115 0.479,0.31278 1.17547,2.26573 1.14828,0.7115 0.14957,-1.54321 0.29767,-3.04409 0.13653,-4.60151 0.20576,-0.75514 -1.26751,-2.76936 0.22802,-1.99446 1.13969,0.3253 2.17146,1.14613 3.21862,1.76033 1.53842,1.05504 2.81799,2.44813 3.8858,3.97522 0.38721,0.43003 0.70482,1.09696 0.29103,0.0815 z"
     id="polygon107"
     inkscape:connector-curvature="0" /><path
     style="fill:#008c00;fill-opacity:1;fill-rule:evenodd"
     d="m 294.416,421.852 -0.475,0.238 -0.476,0.355 -0.831,0.239 -0.832,0.355 -0.95,0.357 -0.951,0.356 -1.307,0 -1.188,0.119 -0.713,-0.119 -0.594,0 -0.713,-0.117 -0.594,0 -0.713,-0.239 -0.712,-0.238 -0.713,-0.355 -0.713,-0.239 -0.713,-0.474 -0.713,-0.477 -0.713,-0.593 -0.713,-0.475 4.04,-5.822 -0.119,0 0.119,0.474 0,0.596 0.475,0.713 0.475,0.713 0.951,0.83 0.475,0.357 0.713,0.356 0.713,0.357 1.069,0.475 0.832,0.119 0.832,0.238 0.712,0.237 0.832,0.238 1.069,0.357 1.07,0.356 0.594,0.119 0.475,0.238 0.356,0 0.119,0.117 0,0 0,0 -0.237,0 z"
     id="polygon113" /><path
     style="fill:#008c00;fill-opacity:1;fill-rule:evenodd"
     d="m 258.654,418.287 c -0.0647,1.0111 0.19396,2.08328 -0.28544,3.02204 -0.0249,1.08772 -0.62683,1.97848 -0.87243,3.01259 -0.81624,1.0114 -1.36345,2.23535 -2.50662,2.93926 -0.94967,0.68554 -2.04284,1.10543 -3.14272,1.49248 -1.25469,0.38695 -2.61557,0.31977 -3.92353,0.33853 -1.27985,-0.16839 -2.60135,-0.114 -3.82248,-0.60624 -1.21443,-0.21826 -2.30369,-0.94616 -3.16425,-1.80685 -0.73681,-0.7566 -1.05466,-1.93739 -0.81713,-2.93794 0.44088,-1.17766 1.39952,-2.02638 2.54655,-2.48685 0.90133,-0.40512 1.89712,-0.5379 2.79901,-0.94702 0.8726,0.027 2.41935,-0.81161 1.88412,0.68566 -0.056,1.31771 -0.37999,2.6867 -0.027,3.97994 0.32931,1.56628 1.97887,1.28519 2.91075,0.48511 0.91243,-0.52276 1.81682,-0.95533 2.54025,-1.76601 0.85774,-0.75874 1.64051,-1.57165 2.43197,-2.39081 0.90622,-0.65196 1.35192,-1.80892 2.1448,-2.61767 0.46641,-0.29372 1.51625,-1.83085 1.30407,-0.54707 7e-5,0.0502 -10e-5,0.1007 4e-5,0.15085 z"
     id="polygon115"
     inkscape:connector-curvature="0" /><path
     style="fill:#ff9900;fill-rule:evenodd"
     d="m 217.069,399.752 c 0.50482,1.81057 1.79186,3.34238 3.37666,4.32153 1.26894,0.82901 2.8094,1.23193 4.32245,1.15422 1.35406,0.10385 2.64097,-0.43488 3.91499,-0.81602 0.96991,-0.40908 2.03254,-0.60084 2.91357,-1.19424 1.07875,-0.53558 1.97718,-1.3271 2.91329,-2.06767 0.76121,-0.86905 1.3411,-1.90182 1.83537,-2.95114 0.82873,-1.58064 0.6528,-3.42792 0.68346,-5.15144 -0.16905,-1.27363 -0.60667,-2.59217 -1.53365,-3.52146 -1.16542,-1.24347 -3.09477,-1.09362 -4.55093,-0.51247 -0.7413,0.0257 -1.11686,0.87709 -0.22375,1.05564 1.12495,0.65826 1.89,1.73418 2.85363,2.5822 0.38065,0.41117 1.00324,1.04975 0.0856,1.16882 -1.04895,0.64132 -2.25135,0.96738 -3.47867,0.98021 -1.18313,0.17918 -2.3914,0.095 -3.54234,-0.22913 -0.80339,-0.0427 0.41251,0.9438 0.53975,1.3088 1.26116,1.57821 2.943,2.76459 4.6829,3.75117 -0.0303,0.82375 -1.12625,1.48301 -1.88275,1.71773 -1.23665,0.54023 -2.6091,0.46976 -3.92782,0.5556 -1.56344,0.0946 -3.04118,-0.46578 -4.55924,-0.72791 -1.12471,-0.27481 -2.21859,-0.70504 -3.23227,-1.26324 -0.48945,-0.12098 -1.26049,-1.26574 -1.52716,-0.95814 0.0796,0.2792 0.24661,0.52204 0.33687,0.79694 z"
     id="polygon117"
     inkscape:connector-curvature="0" /><path
     style="fill:#ff9900;fill-rule:evenodd"
     d="m 202.931,381.575 0.356,0.356 0.594,0.475 0.475,0.594 0.595,0.713 0.475,0.594 0.475,0.713 0.357,0.832 0.475,0.95 0.238,0.832 0.356,1.069 0.119,1.069 0.118,1.07 -0.237,0.95 -0.119,0.951 -0.119,0.95 -0.118,0.951 -0.238,0.832 -0.238,0.831 -0.356,0.832 -0.238,0.951 -0.594,0.713 -0.475,0.713 -0.713,0.713 -0.594,0.712 -0.832,0.594 -0.95,0.713 -1.07,0.713 -0.95,0.713 17.109,1.545 -4.277,-19.843 -10.456,-4.514 0,0 0,0 0.238,0.118 z"
     id="polygon119" /><path
     style="fill:#ff9900;fill-rule:evenodd"
     d="m 212.792,407.832 c 1.72775,1.17035 3.13756,2.72508 4.54429,4.24552 1.20691,1.34174 2.02085,2.95241 2.86742,4.52725 0.64966,1.05731 0.75369,2.34786 1.02192,3.53387 0.0767,1.0428 0.16346,2.08763 0.12137,3.13836 -2.77233,0.357 -5.54467,0.714 -8.317,1.071 0.0485,0.9509 0.31265,1.87915 0.27799,2.83658 0.15219,1.53761 0.16303,3.10472 -0.29783,4.59407 -0.29494,0.99709 -0.68979,2.13603 -1.71546,2.58338 -1.22046,0.72912 -2.78545,0.46197 -3.95776,-0.23428 -1.73065,-0.80748 -2.8012,-2.57494 -3.4169,-4.31882 -0.38444,-1.30369 -0.77401,-2.62225 -0.78452,-3.99517 -0.41407,-2.02942 -0.14666,-4.11774 -0.0342,-6.15822 3.3e-4,-0.697 0.10619,-1.15835 0.76125,-0.49452 1.58054,1.14683 3.18231,2.26686 4.77143,3.40298 0.12806,-1.21363 0.8976,-2.29408 0.96925,-3.52753 0.035,-1.25362 0.51365,-2.49146 0.31833,-3.76437 -0.16911,-0.62332 -0.0952,-1.01271 0.50966,-0.42636 1.65479,1.23606 3.32367,2.47428 4.71456,4.01695 0.9009,0.72443 1.86562,2.50032 2.21171,2.95768 -0.0886,-1.31686 -0.4222,-2.59695 -0.69725,-3.88525 -0.17864,-1.52895 -0.78595,-2.94343 -1.26371,-4.38933 -0.48605,-1.82239 -1.60952,-3.37471 -2.51567,-4.99455 -0.21081,-0.57523 -1.474,-1.84385 -0.29281,-0.87366 l 0.20393,0.15442 z"
     id="polygon121"
     inkscape:connector-curvature="0" /><path
     style="fill:#ff9900;fill-rule:evenodd"
     d="m 184.634,419.475 0.713,0 0.713,-0.356 1.069,-0.474 0.475,-0.477 0.594,-0.475 0.713,-0.713 0.713,-0.593 -0.238,-0.239 -0.594,-0.355 -0.832,-0.713 -0.831,-0.713 -1.069,-0.951 -0.951,-0.951 -1.069,-0.949 -0.594,-0.832 0.118,0 0.476,0 0.594,0 1.069,0 0.951,-0.239 1.188,-0.119 1.069,-0.355 1.069,-0.239 -0.237,-0.236 -0.475,-0.238 -0.832,-0.475 -0.713,-0.595 -0.951,-0.831 -0.95,-0.951 -0.95,-1.187 -0.595,-1.071 0.119,0 0.476,0.12 0.712,0.119 1.07,0.236 0.475,-0.117 0.594,0 0.713,-0.119 0.832,0 0.712,-0.239 0.832,-0.238 0.832,-0.355 1.069,-0.239 2.139,3.565 -0.238,0.119 -0.119,0.475 -0.356,0.713 -0.357,1.07 -0.356,0.474 -0.119,0.594 -0.238,0.713 -0.118,0.713 -0.119,0.713 -0.119,0.713 0,0.832 0,0.951 0,0.713 0,0.949 0,0.832 0.119,0.951 0,0.832 0,0.95 0,0.951 0.119,0.951 -0.238,0.713 -0.119,0.713 -0.238,0.593 -0.237,0.594 -0.475,0.238 -0.476,0.356 -0.712,0.238 -0.595,0.119 -0.95,-0.238 -0.713,-0.238 -0.713,-0.356 -0.594,-0.357 -0.594,-0.594 -0.475,-0.475 -0.357,-0.593 -0.356,-0.477 -0.713,-1.068 -0.237,-0.951 -0.238,-0.594 0,-0.238 0,0 0,0 0.356,0 z"
     id="polygon123" /><path
     style="fill:#bf6633;fill-rule:evenodd"
     d="m 167.644,416.029 c -1.15159,0.86195 -1.73028,2.26893 -2.81171,3.19294 -1.72498,2.03459 -3.39863,4.11939 -5.12998,6.15025 -0.73427,1.03903 -1.50555,1.97325 -2.37228,2.91502 -0.85699,1.13113 -1.88587,2.12549 -2.59083,3.3569 -0.86457,0.97412 -1.61004,2.01769 -2.26561,3.13975 -0.48166,0.97048 -1.20432,1.76335 -1.82727,2.63414 -0.71258,1.13851 -1.44031,2.24353 -1.95312,3.49037 -0.38428,0.91079 -1.35767,2.62937 0.38392,2.75861 1.26944,0.39901 2.52249,0.31762 3.82761,0.28565 2.4862,-0.13591 5.0177,-0.28391 7.3952,-1.09515 1.39138,-0.15002 2.73006,-0.54665 4.04961,-0.98511 1.57208,-0.19811 3.05528,-0.85314 4.62365,-1.03318 -1.28602,-0.5374 -2.72696,-1.00832 -4.1278,-1.31245 -1.39851,-0.62155 -2.97623,-1.00461 -4.09339,-2.11074 -0.19204,-1.452 0.54008,-2.89154 1.0673,-4.22698 0.30912,-1.19509 0.67655,-2.36732 1.175,-3.49863 0.49728,-1.44095 1.03118,-2.87387 1.66689,-4.25561 0.62335,-1.79043 1.23756,-3.58504 1.85541,-5.37438 0.5936,-1.03834 0.83605,-2.17835 1.2132,-3.29456 0.29345,-0.60092 1.08748,-2.16498 0.18879,-1.06647 -0.0915,0.10987 -0.18315,0.2198 -0.27459,0.32963 z"
     id="polygon125"
     inkscape:connector-curvature="0" /><path
     style="fill:#f2cc99;fill-rule:evenodd"
     d="m 230.139,434.209 0.594,0 0.831,0 c 12.67678,0.39751 22.01766,1.187 34.1,1.187 l -0.357,0 c -10.77714,2.7942 -21.6932,4.9385 -31.366,7.249 13.34623,0.9841 28.41405,0.41961 41.227,0.355 l -0.356,0 c -15.67019,5.3127 -32.27984,11.03481 -46.336,11.168 l -0.713,0 -0.357,0 -0.713,0 -0.119,0 1.307,-11.762 1.188,-8.197 0,0 0,0 0.238,0 z"
     id="polygon127"
     inkscape:connector-curvature="0"
     sodipodi:nodetypes="ccccccccccccccccccc" /><path
     style="fill:#f2cc99;fill-rule:evenodd"
     d="m 309.505,420.07 c -0.26533,1.57868 -0.56098,3.16935 -0.713,4.752 -0.26245,2.73231 -0.59655,5.4708 -1.069,8.198 -0.60542,3.49472 -0.84952,6.98345 -1.545,10.455 l 0,0.476 0,0.475 -0.118,-0.238 0,-0.237 -0.119,-0.594 c -0.60646,-3.54918 -1.31291,-7.11759 -1.782,-10.693 -0.35219,-2.68433 -0.42245,-5.37455 -0.357,-8.08 0.0396,-1.63797 0.15332,-3.24327 0.357,-4.871 l 0.118,-0.238 0,0 0,0 5.347,0.476 z"
     id="polygon129"
     inkscape:connector-curvature="0"
     sodipodi:nodetypes="cssccccccsscccccc" /><path
     style="fill:#8a998a;fill-rule:evenodd"
     d="m 251.287,476.506 -58.931,4.277 0,-9.267 0,0 0,0 59.169,-4.397 z"
     id="polygon135" /><path
     style="fill:#8a998a;fill-rule:evenodd"
     d="m 343.41634,472.93701 -52.68334,2.02399 -1.426,-10.219 0,0 0,0 55.08341,-3.77144 c 0.63751,4.25187 0.1192,7.92833 -0.97407,11.96645 z"
     id="polygon137"
     inkscape:connector-curvature="0"
     sodipodi:nodetypes="ccccccc" /><path
     style="fill:#bf6633;fill-rule:evenodd"
     d="m 256.634,376.109 c -1.22927,1.75059 -1.86933,3.81618 -2.87666,5.69081 -4.15591,8.62166 -9.3965,16.65976 -13.78233,25.15636 -0.12536,0.58043 -0.53757,1.09484 -0.45001,1.70783 0.41259,-0.63712 1.04202,-1.10058 1.48787,-1.71347 1.28557,-0.93546 2.53121,-1.92815 3.5783,-3.13699 1.03881,-1.10584 2.16918,-2.18857 3.47143,-2.96093 0.62283,-0.45631 0.2944,0.4933 0.3734,0.84075 -0.44917,0.92018 -0.38506,2.01437 -0.62947,3.00047 -0.43475,0.6193 -0.36874,1.39595 -0.67753,2.06817 0.003,0.75546 -0.54699,1.38622 -0.475,2.138 1.90067,0 3.80133,0 5.702,0 -0.10871,-1.03867 0.28713,-2.0318 0.357,-3.04886 -0.0627,-0.60403 0.37418,-1.12689 0.238,-1.74286 0.10057,-1.04754 0.65073,-1.99456 0.713,-3.04928 0.61907,-0.86324 0.32486,-1.99237 0.79535,-2.91919 0.24854,-0.90463 0.77807,-1.72059 0.86765,-2.66381 0.63204,-0.7465 0.71498,-1.77395 1.3329,-2.53429 0.33644,-0.40992 0.34038,-1.02506 0.89237,-1.24486 0.41941,-0.48887 0.80768,-1.01216 1.4534,-1.20881 0.49939,-0.24767 0.85879,-0.71782 1.43033,-0.83404 0.16865,-0.22171 1.15038,-0.70016 0.832,-0.238 -0.414,0.31277 -0.92048,0.54928 -1.34319,0.78397 -0.19805,0.30548 -0.20627,-0.80785 -0.3275,-1.07657 -0.8691,-4.41713 -1.73821,-8.83427 -2.60731,-13.2514 -0.17022,-0.0463 -0.23726,0.15683 -0.356,0.237 z"
     id="polygon141"
     inkscape:connector-curvature="0" /><path
     style="fill:#ffffff;fill-rule:evenodd"
     d="m 154.812,472.703 c 1.32066,-0.76063 2.7416,-1.17532 4.2098,-1.53797 1.20543,-0.0408 2.21469,-0.80374 3.4383,-0.7656 1.24055,-0.25345 2.51485,-0.35599 3.76272,-0.55045 1.41647,6e-4 2.76035,-0.53907 4.20932,-0.38468 1.57168,-0.12551 3.09389,-0.683 4.68357,-0.59515 1.54534,-0.14 3.09823,-0.0714 4.64729,-0.0861 1.42078,-0.48065 2.94717,-0.11535 4.41313,-0.24773 0.66798,-0.0746 1.40634,0.37559 0.30377,0.26396 -1.04139,0.48431 -2.14606,0.64957 -3.24201,1.03643 -1.1115,0.53118 -2.19738,1.17008 -3.43932,1.33409 -1.36575,0.46558 -2.60122,1.23697 -3.92472,1.78439 -1.39758,1.10891 1.32259,1.59081 2.15566,1.41892 1.99998,0.0421 3.99978,0.18149 5.99878,0.28 1.42352,0.15134 2.7777,0.37368 4.09498,0.95732 1.29862,0.49845 1.24747,1.89486 -0.0156,2.38137 -1.3196,0.30016 -2.52049,0.99544 -3.87353,1.20997 -1.64195,0.32437 -3.25731,0.77746 -4.92821,0.92703 -1.12053,0.38259 -2.32679,0.37814 -3.44737,0.75713 -1.5397,0.0505 -3.0473,0.3575 -4.56895,0.58379 -1.63422,0.0446 -3.22885,0.43068 -4.8435,0.60761 -1.47836,-0.12316 -2.81216,0.60778 -4.27905,0.53061 -0.80645,-0.13717 0.97628,-1.0062 1.31597,-1.25846 1.20189,-0.79139 2.51427,-1.38178 3.68624,-2.21519 1.22654,-0.36761 2.23198,-1.25446 3.44914,-1.55509 -1.2332,0.17618 -2.38413,0.49342 -3.57489,0.85241 -1.13871,0.58205 -2.49858,0.1791 -3.71275,0.51246 -1.6199,0.1141 -3.29406,0.0914 -4.87072,-0.28715 -1.07536,-0.4151 -2.20361,-0.99764 -2.6809,-2.12597 -0.70929,-1.02554 -0.59168,-2.48702 0.46098,-3.25602 0.19063,-0.19061 0.38133,-0.38139 0.57192,-0.57188 z"
     id="polygon143"
     inkscape:connector-curvature="0" /><path
     style="fill:#ffffff;fill-rule:evenodd"
     d="m 280.04,468.783 c -1.51124,-0.0761 -3.00645,0.14923 -4.51487,0.11695 -2.56325,0.0905 -5.09613,0.56319 -7.62527,0.96015 -2.59021,0.47736 -5.19238,0.99436 -7.70352,1.78061 -1.01623,0.45178 -2.14312,0.91444 -2.67641,1.96065 -0.9247,0.77751 -0.22209,2.00719 0.26762,2.80802 0.16044,0.98511 1.28393,1.14671 1.81847,1.87226 0.89058,1.02529 2.33862,0.92397 3.55557,1.18979 0.8931,0.5411 1.94052,0.30855 2.93253,0.37165 1.20332,0.17473 2.40863,-0.10008 3.61253,-0.18345 1.23148,-0.42297 2.62523,-0.14706 3.86041,-0.65963 1.12217,-0.10898 -0.0793,0.38614 -0.42853,0.61158 -2.01651,1.14247 -4.03302,2.28495 -6.04953,3.42742 0.6835,-0.48541 1.86839,-0.28412 2.75465,-0.46213 1.29425,0.009 2.50607,-0.62101 3.80947,-0.5008 1.30065,-0.26616 2.59923,-0.45703 3.90274,-0.59205 0.84981,-0.33212 1.74813,-0.49826 2.659,-0.60596 1.16966,-0.38773 2.38243,-0.49853 3.41559,-1.2559 1.21378,-0.43406 1.09755,-1.59988 0.0666,-2.16429 -1.12697,-1.14293 -2.65494,-1.72639 -4.18842,-2.08721 -1.09508,-0.39058 -2.23786,-0.68149 -3.36538,-0.93471 -0.7666,-0.16581 -2.44272,-0.2906 -2.64314,-0.71087 2.63177,-1.61951 5.22862,-3.29925 7.84687,-4.94208 -0.43567,0 -0.87133,0 -1.307,0 z"
     id="polygon145"
     inkscape:connector-curvature="0" /><path
     style="fill:#ff9900;fill-rule:evenodd"
     d="m 170.258,420.664 0.475,0.832 0.475,0.949 0.713,1.071 0.356,0.593 0.357,0.594 0.475,0.594 0.594,0.713 0.357,0.474 0.594,0.713 0.594,0.477 0.712,0.713 0.595,0.474 0.713,0.475 0.712,0.476 0.832,0.594 0.713,0.356 0.831,0.357 0.832,0.356 0.951,0.357 0.95,0.119 0.951,0.237 1.069,0.119 1.069,0.119 0.832,-0.119 0.95,-0.119 0.832,-0.118 0.951,0 0.713,-0.238 0.712,-0.119 0.595,-0.238 0.713,-0.118 0.95,-0.595 0.95,-0.475 0.595,-0.594 0.712,-0.474 0.357,-0.713 0.356,-0.477 0.119,-0.593 0.237,-0.356 0.12,-0.596 0.118,-0.236 0,0 0,0.356 0,0.476 0.119,0.713 0,0.713 0,0.949 -0.119,0.951 -0.118,1.069 -0.476,0.951 -0.356,0.951 -0.713,0.832 -0.713,0.949 -0.594,0.238 -0.475,0.356 -0.594,0.357 -0.595,0.356 -0.831,0.119 -0.713,0.238 -0.951,0.119 -0.831,0.237 -1.07,0 -0.95,0 -0.95,0 -0.713,0.119 -0.951,0 -0.713,0 -0.713,0 -0.594,0.119 -0.712,-0.119 -0.713,0 -0.595,0 -0.475,0 -1.069,0 -0.832,0 -0.95,-0.238 -0.713,-0.237 -0.713,-0.238 -0.594,-0.236 -0.713,-0.477 -0.475,-0.355 -0.594,-0.477 -0.476,-0.475 -0.712,-0.712 -0.476,-0.594 -0.356,-0.713 -0.356,-0.594 -0.476,-0.713 -0.356,-0.713 -0.238,-0.713 -0.118,-0.593 -0.357,-0.713 -0.119,-0.713 -0.237,-0.713 0,-0.596 -0.119,-1.306 0.119,-1.069 0,-1.187 0.118,-0.832 0,-0.832 0.238,-0.594 0.238,-0.832 0.237,-0.238 0,0 0,0 0.119,0.476 z"
     id="polygon149" /><path
     style="fill-rule:evenodd"
     d="m 132.238,428.98 -0.119,0.239 0,0.713 -0.119,0.474 c -0.28868,12.35129 3.61017,25.88549 9.861,34.813 l 0.595,0.83 0.712,0.832 0.595,0.832 0.713,0.832 -0.12,-0.357 -0.356,-0.95 -0.237,-0.832 -0.119,-0.713 -0.357,-0.951 c -2.28489,-9.21194 -4.39352,-18.29717 -5.584,-27.801 l 0,-0.712 0,-0.713 0.238,-0.358 9.742,-0.236 2.258,-6.18 0,0 0,-0.74156 c -6.03198,0.22637 -12.259,0.98218 -17.703,0.97956 z"
     id="polygon151"
     inkscape:connector-curvature="0"
     sodipodi:nodetypes="ccccccccccccccccccccccc" /><path
     style="fill-rule:evenodd"
     d="m 217.664,455.238 c -0.41565,-0.91959 -0.70998,-1.88652 -0.88575,-2.87558 -0.39335,-0.96558 -0.58234,-1.99605 -0.9304,-2.97711 -0.26443,-1.21771 -0.62202,-2.41275 -0.86403,-3.63455 -0.3494,-0.98588 -0.45294,-2.03484 -0.79106,-3.02098 -0.12069,-0.76052 -0.38973,-1.4858 -0.57112,-2.23234 -0.31397,-1.03304 -0.31982,-2.14519 -0.72326,-3.15705 -0.16982,-0.76806 -0.21439,-1.54643 -0.28805,-2.32252 -0.16011,-0.81567 -0.31501,-1.63206 -0.33119,-2.4617 -0.19423,-1.08409 -0.39774,-2.16712 -0.31914,-3.27374 0.0566,-1.69264 -0.14126,-3.40891 0.162,-5.08188 0.033,-0.56844 0.3115,-0.82914 0.88393,-0.72135 5.71102,-0.30507 11.42205,-0.61013 17.13307,-0.9152 -0.64954,0.1802 -1.06277,0.61916 -1.663,1.071 -2.46761,2.10127 -5.25541,3.10085 -8.03728,4.04664 -0.73745,0.0498 -1.46478,0.16299 -2.18072,0.34736 -0.0397,9.426 -0.0793,18.852 -0.119,28.278 -0.26602,-0.30987 -0.34527,-0.69236 -0.475,-1.069 z"
     id="polygon153"
     inkscape:connector-curvature="0"
     sodipodi:nodetypes="cccccccccccccccccc" /><path
     style="fill-rule:evenodd"
     d="m 231.564,424.109 -0.118,0.832 -0.119,1.188 c -1.68814,8.54905 -2.00128,17.48283 -3.446,26.139 l 0,0.712 -0.118,0.713 0,0.713 -0.357,0.119 -0.356,-0.238 -0.238,-0.475 -0.238,-0.357 -0.237,-0.713 -0.238,-0.594 c -2.09356,-8.50298 0.20106,-18.85041 3.921,-26.257 l 0.356,-0.832 0.476,-0.475 0.594,-0.832 0.237,-0.236 0,0 0,0 -0.119,0.119 z"
     id="polygon155"
     inkscape:connector-curvature="0"
     sodipodi:nodetypes="cccccccccccccccccccccc" /><path
     style="fill-rule:evenodd"
     d="m 196.277,392.268 c -0.81784,-0.47416 -1.66642,-0.88813 -2.45536,-1.40704 -0.85897,-0.38356 -1.57106,-1.0895 -1.89834,-1.98214 -0.99364,-1.86706 -1.38429,-4.42841 0.1388,-6.13467 1.93676,-2.12798 4.9821,-2.65462 7.71656,-2.89091 3.67696,-0.19378 7.49904,0.16365 10.87534,1.72176 0.86367,0.49246 1.66009,1.10055 2.48051,1.64851 0.71454,0.58131 1.06033,1.59424 1.93986,1.95141 0.43715,0.1137 0.90951,0.35081 1.17269,-0.16446 0.42143,-0.3952 0.75975,-0.91314 0.96742,-1.44287 0.0912,-0.8188 0.36738,-1.59246 0.58587,-2.37725 -0.0966,-0.42004 0.43126,-1.00717 -0.0261,-1.20563 -0.72229,-0.40472 -1.39065,-0.89874 -2.10466,-1.30815 -0.69849,-0.32595 -1.44244,-0.54076 -2.11353,-0.93363 -0.87009,-0.39217 -1.77492,-0.6977 -2.66506,-1.03993 -2.20875,-2.74988 -6.01725,-3.34195 -9.34482,-3.06824 -4.48026,0.42182 -8.95115,2.08123 -12.33259,5.10272 -1.85063,1.64728 -3.33434,4.2618 -2.45485,6.77803 0.79965,2.2465 2.75593,3.82966 4.79838,4.91742 1.22799,0.79068 2.69916,1.52699 4.05916,2.02929 0.76166,0.20836 0.6616,-0.0101 1.39,0.28855 -0.48206,-0.28261 -0.20652,-0.29842 -0.72928,-0.48277 z"
     id="polygon157"
     inkscape:connector-curvature="0"
     sodipodi:nodetypes="cccccccccccccccccccccc" /><path
     style="fill-rule:evenodd"
     d="m 149.941,428.861 c -0.19132,4.9912 0.36763,9.97477 0.23814,14.96651 0.18291,1.30883 0.0278,2.63594 0.23686,3.9423 0.0823,1.4698 0.25951,2.92751 0.28628,4.40238 0.3083,1.2437 0.094,2.54318 0.40937,3.78697 0.0566,1.27808 0.42038,2.5138 0.46432,3.79741 0.0486,0.68475 0.81345,1.76835 -0.4364,1.25246 -1.27621,-0.42874 -2.17107,-1.58099 -2.64512,-2.7948 -0.54147,-0.97389 -0.92498,-2.03007 -1.22508,-3.09665 -0.21147,-1.50849 -0.6999,-2.95877 -0.86361,-4.47936 -0.18773,-1.31504 -0.20688,-2.65911 -0.50472,-3.97003 0.0583,-2.55584 -0.1224,-5.12314 0.0966,-7.6712 0.47962,-3.65839 2.18437,-6.97894 3.39743,-10.42159 0.65684,-0.78971 0.54599,-0.53211 0.54591,0.2856 z"
     id="polygon159"
     inkscape:connector-curvature="0" /><path
     style="fill-rule:evenodd"
     d="m 256.396,373.376 c -0.59327,0.41533 -0.31789,1.27272 -0.98172,1.67823 -2.39131,4.22344 -5.05171,8.3069 -7.41627,12.55341 -5.83684,10.23566 -11.37672,20.63945 -17.14365,30.91263 -0.47284,1.30633 -1.34906,2.44428 -1.66636,3.80573 -0.1449,-0.97005 0.61846,-1.67977 0.75275,-2.59988 0.40768,-1.14258 0.79149,-2.30299 1.18028,-3.44403 0.35074,-1.81691 1.33787,-3.46514 1.90407,-5.2275 4.52289,-11.65461 8.68908,-23.64161 15.72787,-34.07456 0.87119,-0.75541 1.44601,-1.83712 2.57259,-2.25233 0.6662,-0.50394 1.48627,-0.81479 2.30321,-0.95576 0.79197,-0.23588 1.56176,-0.56647 2.40193,-0.66042 0.57113,0.009 1.1971,-0.52006 0.3653,0.26448 z"
     id="polygon161"
     inkscape:connector-curvature="0" /><path
     style="fill-rule:evenodd"
     d="m 262.693,386.683 -0.119,-0.831 c -2.81681,-5.23534 0.6944,-21.29253 7.842,-12.713 l 0.356,0.832 0.357,0.95 0.119,0.713 0.237,0.831 0.119,0.713 0.238,0.832 0,0.594 0,0.476 0,0.237 0.118,0.238 0,-0.238 0.119,-0.475 0.238,-0.713 0.238,-0.832 0.237,-1.188 0.238,-1.069 0.118,-1.307 0.12,-1.188 -0.238,-1.307 -0.357,-1.188 -0.713,-1.188 -0.712,-0.951 -0.594,-0.475 c -6.13881,-3.06683 -8.4761,-0.94682 -10.38437,1.87236 -2.81606,4.16033 -3.33915,11.20196 -2.68563,16.42464 l 0.119,0.713 0.357,0.713 0,0.475 0.237,0.594 0.357,0.713 0,0.356 4.277,-1.782 0,0 0,0 -0.119,-0.238 z"
     id="polygon163"
     inkscape:connector-curvature="0"
     sodipodi:nodetypes="ccccccccccccccccccccccccccscccccccccccc" /><path
     style="fill-rule:evenodd"
     d="m 232.634,388.941 c 1.79557,-0.80047 3.6306,-1.67546 4.84523,-3.29197 1.6155,-1.86855 2.64834,-4.90029 1.02551,-7.07346 -1.19272,-1.51437 -3.2167,-1.944 -5.01185,-2.24628 -3.54953,-0.10166 -7.32918,0.19128 -10.32577,2.30222 -4.3856,2.99545 -6.4523,8.37098 -6.9542,13.48673 -0.36954,3.79438 0.3599,8.13866 3.4498,10.68949 2.8559,2.14486 6.75123,2.00822 10.0236,1.06152 0.79707,-0.26301 2.96503,-1.14367 1.25722,-0.16219 -1.25927,0.95384 -2.66548,1.7153 -4.13047,2.34259 -2.02949,1.15336 -4.46102,0.86655 -6.65647,0.43273 -3.32772,-0.67647 -6.2019,-3.09187 -7.34197,-6.30067 -1.86841,-4.94294 -0.90689,-10.51727 1.11136,-15.25506 2.62631,-5.93936 7.63218,-11.10131 13.97208,-12.92798 2.17725,-0.5398 4.46231,-0.52288 6.65101,-0.13212 1.59982,0.39342 3.16352,1.04184 4.6212,1.81179 1.73721,0.90198 3.43115,2.46665 3.35739,4.58677 0.30561,3.88166 -2.1906,7.50439 -5.55682,9.24307 -1.42328,0.84101 -3.06024,1.14355 -4.63108,1.55097 l 0.29196,-0.11742 0.002,-7.6e-4 2.7e-4,3e-5 z"
     id="polygon165"
     inkscape:connector-curvature="0" /><path
     style="fill-rule:evenodd"
     d="m 196.10639,392.63953 c -1.05946,0.70954 -2.13047,1.88447 -2.94603,2.8843 -0.48859,0.98894 -1.07747,1.9675 -1.37304,3.03855 -0.28336,1.15272 -0.11314,2.3337 0.11862,3.48169 0.23642,1.27805 0.88783,2.45258 1.64462,3.48923 0.59109,0.71923 1.11561,1.50522 1.83619,2.10976 -0.51121,-1.77967 -0.71319,-3.66174 -0.65876,-5.52299 -0.0819,-1.08647 0.0803,-2.15251 0.5344,-3.14194 0.20678,-1.53561 0.49199,-3.07076 0.8967,-4.57213 -0.24494,-0.29458 0.75374,-2.62919 -0.0527,-1.76647 z"
     id="polygon167"
     inkscape:connector-curvature="0"
     sodipodi:nodetypes="cccccccccc" /><path
     style="fill-rule:evenodd"
     d="m 221.228,420.07 -0.356,-0.713 -0.238,-0.832 -0.238,-0.593 -0.237,-0.596 -0.357,-0.594 -0.238,-0.474 -0.356,-0.713 c -7.60391,-15.02037 -28.61017,-11.26055 -24.237,6.177 l 0.475,0.952 0.356,0.951 0.713,0.949 0.594,0.951 0.832,0.949 -0.357,-0.236 -0.712,-0.477 -0.595,-0.474 -0.475,-0.475 -0.594,-0.593 -0.594,-0.477 -0.713,-0.83 -0.594,-0.713 c -4.95502,-8.06944 -1.10941,-15.54183 5.25478,-18.90871 6.627,-3.50591 15.97863,-2.59149 20.64622,5.12571 l 0.475,0.713 0.238,0.593 0.356,0.713 0.238,0.713 0.357,0.713 0.118,0.594 0.119,0.713 0.119,0.593 0.237,0.596 0.119,0.949 0.238,1.071 0,0.713 0,0.832 0,0.593 0.119,0.594 -0.238,0.713 -0.119,0.594 -0.119,0.238 0,0.119 0,0 0,0 -0.118,-0.238 z"
     id="polygon169"
     inkscape:connector-curvature="0"
     sodipodi:nodetypes="ccccccccccccccccccccccscccccccccccccccccccccccc" /><path
     style="fill-rule:evenodd"
     d="m 191.287,395.832 -0.831,-0.356 -0.832,-0.238 -0.951,-0.357 -0.831,-0.118 -1.188,-0.357 c -12.72617,-2.72884 -20.2124,15.28599 -10.931,23.406 l 0.713,0.594 1.069,0.713 0.475,0.356 0.594,0.357 0.594,0.356 0.713,0.357 -0.237,-0.119 -0.357,0 -0.713,0 -0.713,0 -1.069,-0.238 -0.95,-0.118 -1.188,-0.357 -1.07,-0.238 -0.712,-0.356 -0.595,-0.357 -0.594,-0.356 -0.475,-0.238 -0.713,-0.475 c -9.45114,-10.50666 0.17125,-31.39763 15.208,-26.376 l 1.188,0.475 0.832,0.357 0.95,0.594 0.832,0.475 0.951,0.713 0.594,0.594 0.713,0.594 0.475,0.713 0.475,0.713 0,0 0,0 -0.475,-0.238 z"
     id="polygon171"
     inkscape:connector-curvature="0"
     sodipodi:nodetypes="cccccccccccccccccccccccccccccccccccccccc" /><path
     style="fill-rule:evenodd"
     d="m 183.564,417.455 c -0.28848,0.32177 -0.33848,0.75882 -0.51464,1.13615 -0.2084,0.3122 -0.38571,0.63728 -0.43805,1.01411 -0.0906,0.47616 -0.29457,0.93246 -0.35331,1.41041 0.0226,0.63933 -0.0175,1.27474 -0.119,1.90633 0.0731,0.69148 0.17662,1.38758 0.41863,2.04094 0.215,0.44102 0.34193,0.93681 0.70853,1.28355 0.38775,0.47078 0.82034,0.91086 1.28407,1.30518 0.45729,0.3631 0.96756,0.65939 1.53627,0.80466 0.48053,0.17919 0.93299,0.44197 1.45279,0.49171 0.49133,0.10614 0.98806,0.15813 1.49071,0.13196 0.55135,0.13139 1.11368,0.13129 1.67695,0.12 0.47894,-0.0247 0.97215,0.0518 1.44129,-0.0426 0.69415,-0.22427 1.43268,-0.33392 2.06787,-0.7097 0.36784,-0.21167 0.85011,-0.19972 1.13407,-0.54722 0.4353,-0.3588 0.84645,-0.7412 1.18342,-1.19599 0.26368,-0.25652 0.311,-0.7176 0.6944,-0.83351 -1.37187,-0.007 -2.74574,0.0143 -4.11636,-0.0107 -1.10494,-0.17359 -2.22514,-0.27417 -3.31699,-0.51628 -0.8275,-0.21483 -1.64025,-0.54345 -2.33689,-1.04227 -0.52321,-0.53472 -1.09171,-1.03018 -1.50497,-1.66025 -0.39411,-0.47068 -0.56964,-1.07477 -0.9228,-1.5747 -0.28549,-0.51347 -0.34611,-1.10791 -0.59654,-1.63593 -0.29889,-0.7127 -0.5498,-1.46111 -0.63145,-2.23083 -0.20543,-0.0636 -0.15637,0.24069 -0.238,0.355 z"
     id="polygon173"
     inkscape:connector-curvature="0" /><path
     style="fill-rule:evenodd"
     d="m 153.743,443.832 0.356,-0.119 0.594,0 c 20.03525,-1.53927 37.92348,-3.83431 56.792,-6.059 l -0.237,-0.119 c -19.827,-4.70742 -42.23436,-0.37404 -56.674,5.346 l -0.95,0.594 -0.594,0.357 -0.119,0.238 0,0 0,0 0.119,-0.119 z"
     id="polygon175"
     inkscape:connector-curvature="0"
     sodipodi:nodetypes="ccccccccccccc" /><path
     style="fill-rule:evenodd"
     d="m 318.06,413.771 0.712,-0.117 0.594,-0.119 0.595,0 -0.238,0.119 c -4.64337,11.3792 -7.53802,24.13297 -10.12522,34.80977 -0.33483,-6.14672 0.95489,-20.13728 1.92722,-28.03777 l 0,-0.594 0.238,-0.357 -10.099,-3.92 0,0 0,0 0,-0.119 c 5.9444,-0.47183 11.43005,-0.75393 16.396,-1.665 z"
     id="polygon177"
     inkscape:connector-curvature="0"
     sodipodi:nodetypes="cccccccccccccc" /><path
     style="fill-rule:evenodd"
     d="m 280.277,389.06 c -0.70947,0.72031 -0.6069,0.49706 -1.8325,2.18329 -1.2256,1.68623 -3.17514,6.08957 -3.0042,9.49325 0.10364,2.87138 1.39355,5.596 3.28689,7.72137 0.32399,0.50579 0.89554,0.76805 1.27124,1.2327 0.24409,0.21958 0.50364,0.42221 0.75357,0.63539 -0.29006,-0.63954 -0.50749,-1.31946 -0.593,-2.019 -1.10973,-4.35152 -0.8227,-9.21392 1.53658,-13.11797 0.54803,-0.87829 1.11256,-1.78359 1.96664,-2.39539 0.29049,-0.22408 0.59631,-0.42831 0.89278,-0.64464 -0.62308,-0.67541 -1.38495,-1.199 -2.00104,-1.88204 -0.56072,-0.56092 -1.12196,-1.12132 -1.68196,-1.68296 -0.33511,-0.0984 -0.40017,0.29394 -0.595,0.476 z"
     id="polygon183"
     inkscape:connector-curvature="0"
     sodipodi:nodetypes="czccccccccccc" /><path
     style="fill:#007800;fill-opacity:1;fill-rule:evenodd"
     d="m 263.168,420.545 c 0.0758,-0.94931 0.064,-1.91886 0.48793,-2.79692 0.29063,-0.92587 0.75028,-1.77723 1.09617,-2.67403 0.62965,-0.90675 1.21575,-1.8988 2.20632,-2.45949 0.81072,-0.68473 1.59053,-1.44201 2.68094,-1.65259 1.14527,-0.51529 2.37809,-0.91331 3.63869,-0.95787 -0.72316,0.62245 -1.45811,1.35571 -1.94304,2.21477 -1.16634,0.75088 -1.80699,2.02164 -2.81983,2.93299 -0.70269,0.9341 -1.3781,1.91088 -2.27925,2.67615 -0.93183,0.98281 -1.91707,1.90222 -2.78337,2.927 -0.27125,0.30827 -0.31167,0.0324 -0.28456,-0.21001 z"
     id="polygon185"
     inkscape:connector-curvature="0" /><path
     style="fill-rule:evenodd"
     d="m 274.337,403.555 -0.594,-0.119 -0.595,0 -0.831,-0.12 -0.832,-0.119 -1.069,0 c -8.48812,0.16354 -16.44287,7.8799 -9.743,15.922 l 0.713,0.832 0.357,0.356 -0.119,-0.356 0,-0.832 c -0.46064,-6.62871 2.54404,-11.43755 8.792,-13.783 l 0.832,-0.356 0.831,-0.357 0.713,-0.355 0.713,-0.12 0.832,-0.355 0.475,0 0,0 0,0 -0.238,-0.119 z"
     id="polygon187"
     inkscape:connector-curvature="0"
     sodipodi:nodetypes="cccccccccccccccccccccc" /><path
     style="fill-rule:evenodd"
     d="m 280.277,412.229 c -0.23059,0.27449 -0.43273,0.56312 -0.48533,0.9261 -0.0656,0.53976 -0.58117,0.83294 -0.82864,1.28339 -2.29486,3.48396 -5.92753,6.12704 -10.04685,6.94334 -0.88436,0.16001 -1.77998,0.30663 -2.67767,0.35017 -0.5875,0 -1.17501,0 -1.76251,0 0.49526,0.48954 1.10235,0.85827 1.70232,1.20678 0.91379,0.33387 1.70017,0.94245 2.65589,1.17418 3.21119,0.88677 6.75142,0.0483 9.45187,-1.83196 2.05571,-1.41448 3.6267,-3.7936 3.44566,-6.36453 -0.0432,-0.78519 -0.25722,-1.54782 -0.43895,-2.30764 -0.19852,-0.58797 -0.36845,-1.21411 -0.74947,-1.70951 -0.21298,-0.14997 -0.19129,0.21137 -0.26632,0.32968 z"
     id="polygon189"
     inkscape:connector-curvature="0" /><path
     style="fill-rule:evenodd"
     d="m 280.277,381.931 -1.069,-0.119 c -3.66894,-0.1092 -7.75932,2.27945 -9.80112,5.97805 -1.74176,3.15509 -1.97849,7.43477 0.65312,10.06195 l 0.712,0.712 0.951,0.475 1.188,0.477 -0.356,0 -0.832,0.236 -0.713,0 -0.594,0 -0.713,-0.117 -0.594,0 -0.832,-0.358 -0.713,-0.238 -0.712,-0.475 -0.594,-0.593 c -3.01523,-4.23329 -2.57812,-9.02127 -0.34574,-12.5022 2.60566,-4.06295 7.69515,-6.42121 13.17674,-5.2008 l 0.951,0.475 0.712,0.594 0.357,0.475 0,0.238 0.119,0.118 0,0 0,0 -0.356,-0.118 z"
     id="polygon191"
     inkscape:connector-curvature="0"
     sodipodi:nodetypes="ccsccccccccccccccscccccccccc" /><path
     style="fill-rule:evenodd"
     d="m 264.713,387.04 c -0.67779,-0.0579 -1.32219,0.20211 -2.00236,0.15805 -3.78297,0.25274 -7.1997,2.58486 -9.21482,5.73458 -2.22466,3.42607 -3.21698,7.67722 -2.64537,11.72668 0.24414,0.92083 0.35978,1.89074 0.86412,2.72012 0.21659,0.40926 0.40881,0.85377 0.76143,1.16557 -0.0712,-1.51459 -0.0345,-1.107 0.44595,-4.17346 0.48042,-3.06647 3.22713,-9.22473 7.37658,-11.77909 1.36904,-0.81561 2.85409,-1.56764 4.45353,-1.75045 0.38298,0 0.76596,0 1.14894,0 -0.198,-1.22767 -0.396,-2.45533 -0.594,-3.683 -0.18066,-0.13753 -0.37811,-0.12867 -0.594,-0.119 z"
     id="polygon193"
     inkscape:connector-curvature="0"
     sodipodi:nodetypes="cccccczccccc" /><path
     style="fill-rule:evenodd"
     d="m 294.891,387.872 -0.594,0.356 -0.594,0.356 -0.713,0.357 c -11.39524,3.99479 -9.8305,-6.5655 -4.039,-12.357 l 1.069,-0.594 1.069,-0.594 1.07,-0.356 -0.238,0 -0.357,0 -0.593,0 -0.595,0.237 -0.95,0.119 -0.832,0.356 -1.069,0.357 -0.951,0.475 -1.188,0.357 c -10.86132,5.74503 -5.17328,23.24807 7.129,15.564 l 0.713,-0.713 0.832,-0.712 0.594,-0.832 0.475,-0.713 0.238,-0.713 0.356,-0.475 0.237,-0.951 0.119,-0.237 0,0 0,0 -0.356,0.118 z"
     id="polygon205"
     inkscape:connector-curvature="0"
     sodipodi:nodetypes="cccccccccccccccccccccccccccccc" /><path
     style="fill-rule:evenodd"
     d="m 299.763,411.871 c -0.4348,-0.98469 -0.74991,-2.0149 -1.21357,-2.98865 -0.35766,-0.70341 -0.81857,-1.35763 -1.20291,-2.04742 -0.64523,-0.77985 -1.31749,-1.57251 -2.26858,-1.98805 -2.05293,-1.18742 -4.80655,-1.5317 -6.84173,-0.12009 -2.90848,2.00382 -3.79771,6.04065 -2.84849,9.31116 0.68637,2.55243 2.62451,4.59579 4.95289,5.76114 0.77236,0.3938 1.61829,0.63038 2.41139,0.98391 0.90903,0.21296 1.86059,0.24106 2.733,0.594 -0.97291,-0.002 -1.94852,0.0393 -2.91168,-0.119 -1.01452,0.0519 -2.01287,-0.18768 -3.02832,-0.119 -0.83085,-0.29314 -1.69741,-0.44679 -2.54966,-0.65166 -0.71471,-0.27934 -1.49872,-0.41657 -2.16732,-0.78993 -0.88235,-0.60374 -1.85245,-1.13177 -2.45429,-2.05026 -2.30069,-2.82114 -3.12301,-6.79254 -1.96916,-10.26746 1.39472,-4.59985 5.85639,-8.16006 10.71023,-8.17696 1.79305,-0.005 3.63042,0.34827 5.22164,1.1868 0.90264,0.4619 1.50402,1.30294 2.23756,1.97747 0.80767,1.07751 1.22951,2.37183 1.67254,3.62507 0.13649,0.88656 0.25841,1.77609 0.2444,2.67336 0.0944,0.51654 0.12292,1.03174 -0.0149,1.54357 0.0658,0.66431 -0.17077,1.29771 -0.12852,1.96008 -0.0464,0.37527 -0.13286,0.74772 -0.10948,1.12792 -0.0967,-0.49529 -0.30507,-0.95348 -0.475,-1.426 z"
     id="polygon207"
     inkscape:connector-curvature="0" /><path
     style="fill-rule:evenodd"
     d="m 236.317,421.732 c 0.39866,-1.32895 1.33298,-2.5302 2.07574,-3.64638 2.26225,-2.33027 4.71554,-4.70493 7.86821,-5.74395 3.03443,-0.98313 6.81037,0.15475 8.45335,2.97592 1.14172,1.9338 0.70351,4.42355 -0.5458,6.19443 -1.11668,1.72535 -2.79738,2.93923 -4.4255,4.14198 0.74279,-0.25426 1.51751,-0.43999 2.15793,-0.91629 2.7354,-1.68649 5.34877,-4.11784 6.02001,-7.39201 0.60518,-2.76445 -0.81125,-5.71355 -3.19615,-7.1684 -2.50915,-1.63525 -5.72291,-1.69946 -8.52051,-0.84518 -3.30068,0.8319 -6.60426,2.37841 -8.66108,5.1943 -1.39043,1.874 -2.31556,4.52108 -1.95935,6.54185 0.0285,0.38883 -0.011,0.78605 0.20941,1.13608 0.11437,0.25644 0.36144,0.88354 0.28674,0.25941 0.067,-0.24557 0.16013,-0.4878 0.237,-0.73176 z"
     id="polygon209"
     inkscape:connector-curvature="0"
     sodipodi:nodetypes="ccccccccccccccc" /><path
     style="fill-rule:evenodd"
     d="m 304.515,449.059 -0.238,-0.594 c -0.8301,-2.70659 -0.98941,-5.5487 -1.544,-8.317 -0.75793,-3.11527 -0.91084,-6.09838 -0.8721,-9.10477 0.0395,-3.06436 0.2781,-6.15291 0.2781,-9.43023 l 0.119,-0.713 0.118,-0.83 0.119,-0.713 -0.119,0 -0.237,0.237 -0.357,0.357 -0.237,0.713 -0.476,0.713 c -1.2735,2.90346 -1.92676,6.03968 -2.26164,9.17259 -0.34293,3.2081 -0.352,6.41273 -0.35136,9.36041 0.12417,2.77481 0.21885,5.70088 0.475,8.08 l 0.119,1.188 c 1.22792,0.18883 3.93298,0.50323 5.702,0.119 l 0,0 0,0 -0.118,0 z"
     id="polygon217"
     inkscape:connector-curvature="0"
     sodipodi:nodetypes="cccscccccccccscccccccc" /><path
     style="fill-rule:evenodd"
     d="m 230.852,434.922 0.475,-0.119 0.832,-0.119 0.95,-0.239 1.069,-0.119 0.594,-0.117 0.713,0 c 16.97806,-1.97494 34.18054,-4.873 51.446,-4.873 l 1.188,-0.117 1.307,0 1.188,0 1.188,0 1.188,0 1.188,0.117 -0.237,-0.117 -0.594,-0.119 -0.595,-0.239 -0.475,-0.119 -0.713,-0.119 -0.593,-0.117 -1.07,-0.238 -0.95,-0.12 -1.188,-0.238 c -18.20111,-1.83394 -37.02561,-1.46094 -55.129,1.545 l -2.139,0.357 -0.713,0.237 -0.237,0.596 -0.119,0.83 0.238,0.951 0.118,0.832 0.357,0.951 0.119,0.594 0.237,0.236 0,0 0,0 0,-0.117 z"
     id="polygon229"
     inkscape:connector-curvature="0"
     sodipodi:nodetypes="ccccccccccccccccccccccccccccccccccccc" /><path
     style="fill-rule:evenodd"
     d="M 239.69534,455.98728 C 227.2659,457.29286 212.7645,459.277 199.01,459.277 l -1.069,0 -0.951,0 -0.238,-0.238 0.238,-0.117 0.475,-0.119 0.951,-0.119 0.475,-0.239 c 32.83212,-5.8786 68.6321,-9.84847 97.901,-13.068 l 2.139,-0.119 0.475,0 0.95,0.474 0.951,0.713 8.30523,-1.88056 c 0.13924,1.46461 0.19,2.83724 -0.0385,4.14106 l -6.24761,0.89606 c -23.83023,2.29361 -41.76408,4.11347 -63.63082,6.38572 z"
     id="polygon231"
     inkscape:connector-curvature="0"
     sodipodi:nodetypes="cccccccccccccccccc" /><path
     style="fill-rule:evenodd"
     d="m 286.574,465.693 0,0 c 0.60179,7.93224 2.62956,16.14077 4.753,22.575 0.62394,0.84346 0.55003,0.47341 0.713,-0.12 -0.0502,-8.40012 -0.80213,-19.07973 -0.357,-28.632 -13.92538,2.19218 -28.46713,3.40863 -41.227,5.345 l -0.238,0.119 0,0 0,0 0.238,0 c 12.474,0.43782 24.62236,0.713 36.118,0.713 z"
     id="polygon233"
     inkscape:connector-curvature="0"
     sodipodi:nodetypes="ccccccccccc" /><path
     style="fill-rule:evenodd"
     d="m 249.743,463.08 0,0.356 c 0.39537,9.05462 0.54419,18.86504 -0.832,26.732 -0.25753,1.1474 -0.48371,2.41041 -0.594,3.445 0.41335,-0.21083 0.868,-0.32739 1.307,-0.474 11.53719,-2.17536 27.096,-4.4587 38.376,-4.516 1.04503,0.039 2.15641,0.0393 3.08374,-0.0293 l -0.8057,-0.12827 c -10.06707,-1.85842 -20.9236,-3.0181 -30.31804,-3.04943 -1.3414,0.0804 -2.27523,0.33473 -3.564,0.594 -1.80863,-8.00029 -3.04447,-16.07607 -5.584,-22.217 l -0.356,-0.477 -0.238,-0.355 -0.475,-0.594 0,-0.119 0,0 0,0 0,0.119 z"
     id="polygon235"
     inkscape:connector-curvature="0"
     sodipodi:nodetypes="ccccccccccccccccccc" /><path
     style="fill-rule:evenodd"
     d="m 183.66579,464.16848 c 1.95986,0.16352 3.54136,0.60895 4.43444,1.62636 0.17591,0.84221 0.57179,1.61841 0.60263,2.4926 1.03324,3.33879 1.41146,6.79723 2.25488,9.91346 0.40378,1.22269 0.54525,2.53162 1.09646,3.716 0.381,1.20447 0.60643,2.46488 1.1338,3.6181 -0.0465,-1.18716 0.0234,-2.37 0.238,-3.53366 -0.0917,-1.22989 0.14318,-2.43951 0.238,-3.65465 -0.0197,-1.76102 0.44176,-3.4932 0.3767,-5.25631 0.34376,-2.65369 0.39755,-5.35381 0.9303,-7.97521 -0.003,-2.17069 0.39928,-4.32127 0.67846,-6.46922 0.32968,-0.74325 0.29125,-1.10224 -0.6046,-0.91395 -4.47671,0.80151 -8.57553,1.10266 -12.63655,1.8127 -12.2269,3.18905 -23.15357,3.85946 -33.92489,8.38927 11.43903,-2.65105 24.79225,-3.84762 35.18237,-3.76549 z"
     id="polygon237"
     inkscape:connector-curvature="0"
     sodipodi:nodetypes="ccccccccccccccc" /><path
     style="fill-rule:evenodd"
     d="m 148.396,467.713 c 0.0569,2.60126 -0.17399,5.22051 0.26231,7.79916 0.12138,1.26056 0.14109,2.52908 0.36446,3.78251 0.12443,0.96976 0.0342,1.94906 0.33642,2.8934 0.0898,0.95757 0.40416,1.87163 0.52539,2.82142 0.50545,1.4453 0.6547,3.0732 1.64467,4.29788 1.67014,1.84328 4.95212,1.82407 7.04821,1.53433 9.18492,-1.26962 18.31737,-2.88286 27.43203,-4.53727 0.60899,-0.18324 1.17307,-0.53134 1.83251,-0.41342 0.88491,-0.64978 2.07149,-0.46959 3.06302,-0.88322 1.06434,-0.23898 0.13576,-0.18577 -0.42985,-0.18578 -11.40815,-0.0782 -22.80954,0.64171 -34.218,0.356 -0.85853,-0.2266 -1.05346,-1.26641 -1.61883,-1.86434 -0.67598,-0.87155 -0.82733,-2.00295 -1.49034,-2.88766 -0.30939,-0.90265 -0.67614,-1.78432 -1.02212,-2.66458 -0.33992,-1.19774 -0.82865,-2.35428 -1.27124,-3.52093 -0.42936,-0.96077 -0.78954,-1.95599 -1.19047,-2.9183 -0.25389,-1.24417 -0.6285,-2.44885 -1.14917,-3.60919 -0.1641,-0.85993 -0.11346,-0.89772 -0.119,-10e-4 z"
     id="polygon239"
     inkscape:connector-curvature="0"
     sodipodi:nodetypes="ccccccsccccccccccccc" /><path
     style="fill-rule:evenodd"
     d="m 199.723,479.238 0.832,0 0.713,0 1.069,0 0.475,0 c 17.4457,0.65217 33.48889,0.47893 48.951,0 l 0.713,-4.634 -0.238,0 -0.357,0 c -2.78156,-0.1425 1.34567,-0.21657 -7.604,0.238 -8.94967,0.45457 -28.82911,2.2828 -42.059,3.803 l -0.713,0.117 -0.832,0 -0.593,0.119 -0.832,0.119 -0.238,0.238 0,0 0,0 0.357,0 z"
     id="polygon241"
     inkscape:connector-curvature="0"
     sodipodi:nodetypes="ccccccccczcccccccccc" /><path
     style="fill-rule:evenodd"
     d="m 322.80202,407.07141 0.27008,0.89343 0.26918,0.71054 0.37766,1.2472 0.16205,0.53366 0.21561,0.53516 0.21562,0.71203 0.26962,0.89044 0.1616,0.53515 0.27008,0.89043 0.21561,0.71054 0.32365,0.89044 0.26963,0.89342 0.26963,0.89043 0.32364,0.88893 0.32365,1.06881 0.26963,0.89044 0.32318,0.89042 0.32365,1.06882 0.32365,1.06881 0.32364,1.06732 0.37767,1.06881 0.37721,1.06881 0.37766,1.24721 0.32364,1.06881 0.32364,1.06881 0.37767,1.06882 0.37721,1.06881 0.32365,1.06881 0.37766,1.2472 0.37765,1.06882 0.43124,1.2472 0.32364,1.06581 0.37767,1.06732 0.3772,1.06881 0.37766,1.24721 0.32365,1.06881 0.3772,1.2472 0.37767,1.06881 0.37766,1.2472 0.32365,0.89043 0.3772,1.06881 0.32365,1.06882 0.37766,1.06881 0.32364,0.88893 0.32365,1.06882 0.32365,0.89042 0.37766,1.06881 0.26963,0.71505 0.32319,1.06732 0.32364,0.71204 0.32365,1.06881 0.26963,0.71205 0.26963,0.88893 0.26963,0.71503 0.32365,0.89043 4.04488,0 -0.10803,-0.17988 -0.10758,-0.35677 -0.26963,-0.71054 -0.32364,-0.71205 -0.21561,-0.53515 -0.21607,-0.53366 -0.26963,-0.53516 -0.21561,-0.53366 -0.32365,-0.71354 -0.26963,-0.71204 -0.32364,-0.71204 -0.26963,-0.71055 -0.37767,-1.06882 -0.37766,-0.89342 -0.3772,-1.06882 -0.37767,-0.88893 -0.43123,-1.06881 -0.43167,-1.06881 -0.43123,-1.06882 -0.43122,-1.06881 -0.4857,-1.42259 -0.48524,-1.2472 -0.48524,-1.24719 -0.4857,-1.2472 -0.26963,-0.89044 -0.26962,-0.53665 -0.26963,-0.88893 -0.21607,-0.53366 -0.26917,-0.88893 -0.26963,-0.53666 -0.27009,-0.89042 -0.21515,-0.53216 -0.32364,-0.89342 -0.27009,-0.71056 -0.26963,-0.89042 -0.26963,-0.71204 -0.3232,-0.89193 -0.26962,-0.53366 -0.27008,-0.89042 -0.21561,-0.53517 -0.3232,-0.89042 -0.27008,-0.71205 -0.26962,-0.71354 -0.26963,-0.53365 -0.48525,-1.42559 -0.48524,-1.06881 -0.32365,-0.71055 -0.21606,-0.71204 -0.32364,-0.71355 -0.21562,-0.53366 -0.48524,-1.06881 -0.43168,-1.06881 -0.48524,-1.2472 -0.43123,-1.06882 -0.43168,-0.88893 -0.37766,-0.89042 -0.48524,-1.06882 -0.37766,-0.89042 -0.37721,-0.89193 -0.32364,-0.53366 -0.32365,-0.89043 -0.32364,-0.53516 -0.26963,-0.53365 -0.21561,-0.53516 -0.48525,-1.06882 -0.27008,-0.53215 -0.21561,-0.35827 0,0 0,0 0.10803,0.35827 z"
     id="polygon247"
     inkscape:connector-curvature="0" /><path
     style="fill-rule:evenodd"
     d="m 292.14537,464.01851 -0.75654,0.119 -0.64833,0.119 -0.54012,0.237 -0.64833,0 -0.64742,0.119 -0.54013,0.119 -0.32462,0.238 0,0 0.43192,0 0.54103,0 0.97114,0 0.43282,0 0.54013,0 0.64833,0 0.75563,0 c 14.3984,0.0728 28.30553,0.23611 43.64642,0.236 l 0.86475,0 c 1.80512,-0.10821 4.92624,-0.005 7.12849,-0.40573 0.5086,-0.40899 0.68558,-1.20879 0.43416,-3.15827 l 0,-0.713 0,-0.475 c -4.32389,-1.09983 -5.13755,-0.84212 -6.46675,-0.87788 -1.32921,-0.0358 -31.54019,2.74174 -45.82258,4.44288 z"
     id="polygon249"
     inkscape:connector-curvature="0"
     sodipodi:nodetypes="cccccccccccccccccccccczc" /><path
     style="fill-rule:evenodd"
     d="m 149.347,432.664 c 5.66653,-4.93553 11.17175,-10.27675 17.109,-15.564 l 0.475,-0.477 0.713,-0.355 -0.119,0 -0.357,0.712 -0.356,0.356 -0.238,0.713 -0.475,0.713 c -3.65184,6.43286 -10.43066,16.40197 -15.564,22.338 l -0.475,0.593 -0.357,0.356 -0.356,0.357 -0.832,-0.119 -0.475,-0.832 -0.119,-0.713 c 0.20182,-2.72637 -0.2532,-5.94926 1.426,-8.078 z"
     id="polygon257"
     inkscape:connector-curvature="0"
     sodipodi:nodetypes="ccccccccccccccccc" /><path
     style="fill-rule:evenodd"
     d="m 292.37989,473.16726 0.81461,0 0.36273,0 0.54256,0 c 13.69887,-0.0476 42.58306,-0.31688 49.23528,-0.23702 -17.29039,3.25541 -35.67405,5.01295 -52.58517,6.29802 l 0.63401,-6.061 0,0 0,0 0.0899,0 0.36273,0 z"
     id="polygon261"
     inkscape:connector-curvature="0"
     sodipodi:nodetypes="cccccccccccc" /><path
     style="fill-rule:evenodd"
     d="m 306.178,415.91 -0.118,-0.594 0,-0.593 -0.238,-1.069 -0.119,-0.951 -0.119,-0.713 0,-0.594 -0.119,-0.712 c -0.76173,-13.25325 -1.96187,-26.49781 -3.445,-39.803 l -0.119,-0.831 0,-0.832 0,-0.713 0,-0.594 0,-0.713 0,-0.594 0,-0.594 0,-0.475 0,0 0.238,0.475 0.237,0.594 0.476,1.069 0.119,0.476 0.237,0.831 0.238,0.713 0.356,1.07 c 2.67575,13.09616 5.21171,26.79939 7.01,40.395 l 0.238,1.783 0.237,1.901 0.238,2.019 -5.228,-0.355 0,0 0,0 -0.119,-0.238 z"
     id="polygon263"
     inkscape:connector-curvature="0"
     sodipodi:nodetypes="cccccccccccccccccccccccccccccccccc" /><path
     style="fill-rule:evenodd"
     d="m 302.139,362.921 -0.594,0 -0.476,0 c -8.09978,1.29545 -16.6208,1.53849 -24.475,4.159 l -1.069,0.356 -1.069,0.356 -0.951,0.357 -0.832,0.475 -0.118,0 0.713,0 0.475,0 0.713,0 0.712,0 0.951,0.119 0.713,0 c 8.32667,-0.007 16.61674,-0.238 24.95,-0.238 l 0.713,0 0.713,0 -0.119,-5.584 0,0 0,0 -0.356,0 z"
     id="polygon265"
     inkscape:connector-curvature="0"
     sodipodi:nodetypes="ccccccccccccccccccccccc" /><path
     style="fill-rule:evenodd"
     d="m 169.069,418.881 0.357,-0.594 0.356,-0.594 0.357,-0.593 -0.119,0 0,0.474 -0.119,0.713 c -0.46801,6.89306 1.04187,13.25338 6.535,17.822 l 1.069,0.713 -5.703,2.02 0,0 0,0 -0.238,-0.119 c -5.48929,-5.33987 -4.4433,-13.90466 -2.495,-19.842 z"
     id="polygon267"
     inkscape:connector-curvature="0"
     sodipodi:nodetypes="cccccccccccccc" /><path
     style="fill-rule:evenodd"
     d="m 180.119,326.327 c 1.05416,-0.94357 2.36247,-1.56345 3.37477,-2.5548 3.76574,-2.40922 7.23929,-5.27365 11.20902,-7.38269 16.65593,-9.18359 36.02249,-11.73725 54.78354,-12.02633 3.15232,-0.0455 6.33158,-0.0459 9.44919,0.2617 0.42553,0.20961 -1.6606,-0.0619 -2.25351,0.18911 -1.52198,0.27473 -3.05245,0.27013 -4.56955,0.56701 -22.56825,1.6956 -44.4185,9.47954 -63.66098,21.25728 -1.61048,0.8815 -3.00942,2.04806 -4.56939,2.97451 -0.78771,0.48386 -1.63725,1.00011 -2.21809,1.70421 -0.75267,-1.42567 -1.50533,-2.85133 -2.258,-4.277 0.10642,-0.34389 0.47213,-0.47707 0.713,-0.713 z"
     id="polygon269"
     inkscape:connector-curvature="0" /><path
     style="fill-rule:evenodd"
     d="m 258.178,304.822 -0.118,0.594 0,1.069 0,0.357 0,0.713 c -1.07584,15.45499 -2.8018,33.50659 -5.109,48.475 l -0.238,0.594 0,0.475 0,0.238 0,0.119 4.277,0 0,-0.238 0,-0.238 0,-0.475 c 2.0579,-15.2583 2.52764,-33.36979 1.664,-48.832 l 0,-0.593 0,-0.476 -0.119,-1.069 -0.238,-0.713 0,-0.475 0,0 0,0 -0.119,0 z"
     id="polygon271"
     inkscape:connector-curvature="0"
     sodipodi:nodetypes="cccccccccccccccccccccccc" /><path
     style="fill-rule:evenodd"
     d="m 193.545,363.159 c 0.91982,-0.59134 2.11612,-0.44621 3.09546,-0.93597 16.93625,-5.14509 34.8116,-5.91892 52.39483,-5.81629 1.45168,0.25259 2.95991,0.12012 4.39071,0.45526 0.396,-1.78233 0.792,-3.56467 1.188,-5.347 -1.31197,-0.34632 -2.70253,-0.15891 -4.05402,-0.356 -4.39736,-0.29142 -8.83113,-0.0667 -13.23723,0.0685 -14.15351,0.64373 -28.54593,3.17347 -41.16581,9.87227 -0.99206,0.28019 -1.62428,1.17286 -2.61194,1.4642 -0.43381,0.62861 -1.12783,0.93395 0,0.595 z"
     id="polygon273"
     inkscape:connector-curvature="0" /><path
     style="fill-rule:evenodd"
     d="m 224.198,355.436 c 0.22577,2.9338 0.55855,5.85721 0.75253,8.7941 0.36448,2.6794 0.0671,5.39025 0.31474,8.07165 0.16065,3.93685 0.40485,7.88414 0.1169,11.82931 0.0455,0.75417 -0.098,3.18363 0.10404,2.80991 0.58037,-1.99144 1.31318,-3.93539 1.60782,-5.9996 0.53989,-2.04262 0.86528,-4.07345 1.14397,-6.13937 0.51974,-2.10269 0.76564,-4.24701 1.19753,-6.36538 0.0649,-1.91258 0.46319,-3.80318 0.58441,-5.7068 0.02,-2.03638 0.52403,-4.05219 0.35274,-6.10255 0.57803,-1.99226 -0.41862,-4.85962 -2.96737,-3.5025 -1.02529,0.5966 -3.58811,0.67842 -3.20731,2.31123 z"
     id="polygon275"
     inkscape:connector-curvature="0" /><path
     style="fill-rule:evenodd"
     d="m 198.416,377.297 -0.238,-1.069 -0.118,-0.951 -0.238,-1.069 -0.119,-1.069 -0.119,-0.951 -0.119,-0.712 -0.237,-0.951 -0.119,-0.713 -0.119,-0.713 0,-0.475 -0.118,-0.713 0,-0.238 12.712,-0.237 0,0 0,0.475 0.119,0.713 0.119,0.951 0,0.95 0.119,1.188 0,1.188 0.119,1.307 -0.119,1.069 0,1.07 -0.238,0.95 -0.119,0.951 -0.356,0.594 -0.238,0.475 -0.475,0 -0.475,-0.119 -0.713,-0.594 -0.475,-0.594 -0.476,-0.594 -0.237,-0.475 -0.475,-1.189 0,-1.069 -0.119,-1.188 0.119,-0.713 0.118,-0.594 0.119,-0.119 -4.753,-0.593 -2.376,8.079 0,0 0,0 -0.237,-1.188 z"
     id="polygon277" /><path
     style="fill:#ffffff;fill-rule:evenodd"
     d="m 190.218,329.297 c 4.72867,-3.16583 9.88336,-5.59844 15.03479,-7.9835 7.72633,-3.61285 15.88201,-6.28864 24.23743,-7.99601 5.66342,-1.31982 11.45873,-1.92412 17.21563,-2.69626 2.51589,-0.40266 6.64738,-1.19613 5.54037,2.75611 -0.15539,1.69114 0.63819,4.53467 -0.11446,5.50056 -7.1432,-1.44186 -14.36134,0.5819 -21.29672,2.18066 -6.97305,1.89905 -13.84374,4.18916 -20.63983,6.61103 1.4822,-0.0146 3.49463,-0.60379 5.18021,-0.80872 6.48566,-0.89182 12.93577,-2.06572 19.46756,-2.62276 5.77855,-0.71329 11.60138,-0.91433 17.41885,-0.71491 0.48548,3.64552 0.44812,7.35125 0.44671,11.0237 -0.27088,3.2699 -0.69224,6.63909 -2.06294,9.64418 -1.41779,2.92169 -4.83495,2.95096 -7.59459,3.43587 -6.38863,1.09139 -12.86274,1.52882 -19.31271,2.09768 -8.33091,0.4885 -16.66405,0.96621 -24.99324,1.43577 -1.93913,-0.19958 2.70219,-0.76918 3.63616,-1.1638 8.68631,-2.13476 17.17049,-4.99284 25.73094,-7.56075 3.55154,-1.31275 7.33319,-2.8603 9.82037,-5.80663 1.26268,-3.40977 -3.47703,-4.38426 -5.95142,-4.29537 -5.60933,-0.19975 -11.19431,0.63458 -16.77175,1.11362 -5.43273,0.56859 -10.83317,1.73454 -16.30113,1.66961 -3.46372,-1.40374 1.43037,-4.60986 3.08305,-5.59349 4.35669,-2.67748 8.84089,-5.17453 13.50893,-7.27176 2.87032,-1.0806 -1.91638,0.50787 -2.94533,0.77062 -7.59778,2.27076 -15.21128,4.48844 -22.81192,6.74953 -0.14313,-0.30211 0.33999,-0.38245 0.47504,-0.47498 z"
     id="polygon279"
     inkscape:connector-curvature="0" /><path
     style="fill:#e6ffe6;fill-rule:evenodd"
     d="m 192.476,347.356 0.475,0 0.594,-0.118 0.95,0 0.951,-0.238 1.306,-0.119 0.595,-0.118 0.713,0 0.831,-0.119 0.832,0 0.713,-0.238 0.712,-0.119 0.832,-0.119 0.951,-0.118 0.713,-0.238 0.95,-0.119 0.832,-0.119 0.95,-0.118 0.832,-0.238 0.832,-0.238 0.832,-0.237 0.95,-0.119 0.713,-0.238 0.832,-0.237 0.831,-0.238 0.832,-0.119 0.713,-0.356 0.713,-0.356 0.712,-0.357 0.713,-0.238 0.713,-0.356 0.832,-0.238 0.832,-0.356 0.831,-0.238 0.713,-0.356 0.713,-0.357 0.713,-0.356 0.832,-0.356 0.712,-0.357 0.713,-0.238 0.713,-0.356 0.832,-0.238 0.594,-0.356 0.594,-0.356 0.594,-0.357 0.594,-0.238 1.07,-0.475 0.95,-0.356 0.713,-0.476 0.594,-0.237 0.356,-0.119 0.238,0 -0.238,0 -0.475,0 -0.713,0.119 -0.95,0.237 -0.713,0 -0.594,0.238 -0.713,0 -0.594,0.238 -0.832,0.119 -0.713,0.118 -0.712,0.119 -0.713,0.238 -0.951,0 -0.832,0.237 -0.95,0.119 -0.832,0.238 -0.95,0 -0.832,0.238 -0.832,0.118 -0.832,0.238 -0.95,0.119 -0.832,0.118 -0.95,0.119 -0.713,0.238 -0.831,0 -0.832,0.238 -0.713,0 -0.594,0.237 -0.832,0 -0.713,0 -0.832,0 -0.712,0.119 -0.832,0 -0.832,0 -0.832,0 -0.712,0.119 -0.832,-0.119 -0.832,0 -0.832,0 -0.712,0 -0.832,-0.119 -0.713,0 -0.713,0 -0.713,0 -0.831,-0.119 -0.713,-0.118 -0.713,0 -0.594,0 -1.069,-0.238 -0.951,0 -0.831,-0.119 -0.595,0 -0.475,0 0,0 0,0 1.783,8.674 z"
     id="polygon281" /><path
     style="fill-rule:evenodd"
     d="m 180,328.109 0.356,0.594 0.357,0.832 0.238,0.356 0.237,0.476 0.357,0.475 0.356,0.713 0.238,0.475 0.237,0.594 0.357,0.594 0.356,0.713 0.357,0.713 0.356,0.712 0.357,0.832 0.356,0.951 0.357,0.713 0.356,0.95 0.356,0.832 0.357,1.069 0.356,0.951 0.357,1.069 0.356,1.069 0.475,1.188 0.238,1.07 0.357,1.069 0.356,1.069 0.356,1.07 0.238,0.95 0.356,1.069 0.238,1.07 0.356,1.069 0.238,0.951 0.238,0.95 0.237,0.951 0.357,0.95 0.118,0.832 0.238,0.95 0.238,0.832 0.237,0.95 0.119,0.594 0.119,0.713 0.119,0.713 0.238,0.713 0.237,1.188 0.238,1.069 0.118,0.713 0.238,0.595 0,0.356 0.119,0.237 0,-0.237 0,-0.594 0,-0.594 0,-0.476 0,-0.594 0,-0.594 -0.119,-0.832 0,-0.831 0,-0.95 0,-0.832 -0.119,-1.07 0,-1.069 0,-1.069 0,-0.951 -0.119,-1.188 -0.118,-1.188 -0.119,-1.188 -0.119,-1.188 -0.237,-1.307 -0.12,-1.069 -0.118,-1.307 -0.119,-1.069 -0.238,-1.308 -0.237,-1.188 -0.238,-1.188 -0.238,-1.069 -0.356,-1.069 -0.238,-1.07 -0.356,-1.069 -0.238,-0.951 -0.475,-1.069 -0.357,-0.95 -0.356,-0.951 -0.356,-0.713 -0.356,-0.831 -0.357,-0.713 -0.356,-0.594 -0.238,-0.594 -0.594,-1.189 -0.475,-1.069 -0.595,-0.831 -0.356,-0.595 -0.475,-0.713 -0.357,-0.356 -0.237,-0.475 -0.238,-0.119 -0.356,-0.356 0,0 -4.04,0.594 0,0 0,0 0.119,0.237 z"
     id="polygon283" /><path
     style="fill:#000000;fill-opacity:1;stroke:none"
     d="m 264.74387,468.5106 c 4.80053,1.57191 11.03004,-1.15171 12.61437,2.01694 -4.00637,3.00951 -4.95939,7.92941 -7.28802,13.45554 l -4.38249,-1.10489 c 2.82262,-3.65429 4.25157,-7.10948 8.80932,-11.01165 -3.90241,0.42141 -7.10194,-0.0507 -10.6446,-1.31092 z"
     id="path3179"
     inkscape:connector-curvature="0"
     sodipodi:nodetypes="ccccccc" /><path
     style="fill:#000000;fill-opacity:1;stroke:none"
     d="m 165.81177,469.73196 c -1.62605,1.43031 -3.61223,4.43181 -3.2259,7.76703 0.38633,3.33522 3.55057,4.82378 4.99495,4.99567 2.07034,0.24634 5.01268,-0.69673 6.03074,-4.20561 1.5641,-5.3465 -1.98028,-6.98642 -6.13362,-6.9404 1.53746,-2.35276 5.86443,-3.17391 7.15972,-3.16899 -2.37514,-1.32862 -6.55829,-0.44233 -8.82589,1.5523 z m 2.12114,4.27947 c 2.02699,-1.20475 4.16775,1.61757 2.97894,3.86121 -1.18881,2.24365 -2.37101,2.77014 -4.26499,1.33878 -1.89398,-1.43136 -0.74093,-3.99524 1.28605,-5.19999 z"
     id="path3181"
     inkscape:connector-curvature="0"
     sodipodi:nodetypes="ssscccszzzz" /><path
     style="fill:#000000;fill-opacity:1;stroke:none"
     d="m 274.62699,481.8729 c 0.24998,1.00384 0.36009,2.06362 1.07527,2.88138 0,0 2.25412,-0.91315 3.12546,-1.44387 -0.60679,-0.66076 -1.05454,-2.69598 -1.05454,-2.69598 -1.29369,0.24452 -2.18101,0.7793 -3.14619,1.25847 z"
     id="path3951"
     inkscape:connector-curvature="0"
     sodipodi:nodetypes="ccccc" /><path
     style="fill:#000000;fill-opacity:1;stroke:none"
     d="m 176.22388,478.81567 c 0.24998,1.00384 0.36009,2.06362 1.07527,2.88138 0,0 2.25412,-0.91315 3.12546,-1.44387 -0.60679,-0.66076 -1.05454,-2.69598 -1.05454,-2.69598 -1.29369,0.24452 -2.18101,0.7793 -3.14619,1.25847 z"
     id="path3951-5"
     inkscape:connector-curvature="0"
     sodipodi:nodetypes="ccccc" /><path
     style="fill:#000000;fill-opacity:1;stroke:none"
     d="m 268.37856,475.30751 c 3.3364,-0.50536 4.33433,0.0273 7.29868,0.018 l -0.93332,1.85763 c -3.17444,-0.0221 -4.54942,0.0565 -7.20281,-0.0959 0.24536,-0.71635 0.29601,-0.74176 0.83745,-1.77975 z"
     id="path3975"
     inkscape:connector-curvature="0"
     sodipodi:nodetypes="ccccc" /></svg>